<svg xmlns="http://www.w3.org/2000/svg" version="1.1" xmlnsXlink="http://www.w3.org/1999/xlink" xmlnsSvgjs="http://svgjs.com/svgjs" width="512" height="512" x="0" y="0" viewBox="0 0 512 512" style="enable-background:new 0 0 512 512" xml:space="preserve" class=""><g><g><g><path d="m298.989 223.614c-15.749 0-31.479-3.205-46.386-9.606-18.756-8.054-33.253-22.931-40.821-41.889-7.567-18.958-7.299-39.728.755-58.485 5.315-12.377 15.132-21.944 27.643-26.938 12.512-4.994 26.219-4.815 38.594.498 17.243 7.404 25.247 27.457 17.844 44.7-5.154 12.002-19.114 17.572-31.111 12.419-3.045-1.308-4.453-4.836-3.146-7.881 1.308-3.044 4.837-4.454 7.88-3.146 2.869 1.232 6.046 1.272 8.944.116 2.898-1.157 5.174-3.375 6.406-6.243 4.793-11.163-.39-24.145-11.552-28.938-9.434-4.051-19.877-4.186-29.411-.379-9.534 3.806-17.015 11.096-21.065 20.528-6.79 15.811-7.016 33.32-.636 49.301s18.6 28.521 34.412 35.311c25.92 11.13 54.624 11.503 80.825 1.043 26.2-10.458 46.759-30.494 57.891-56.415 1.307-3.045 4.836-4.454 7.88-3.146 3.045 1.308 4.453 4.836 3.146 7.88-12.396 28.867-35.291 51.178-64.468 62.825-14.109 5.632-28.876 8.445-43.624 8.445z" fill="#58a2cc" data-original="#58a2cc"></path></g><g><path d="m169.014 428.892c-11.588 0-23.092-4.96-31.048-14.558-21.233-25.614-17.67-63.729 7.944-84.962 18.944-15.705 42.872-23.102 67.371-20.801 24.501 2.29 46.643 13.985 62.347 32.93 2.115 2.551 1.761 6.334-.79 8.448-2.549 2.116-6.333 1.763-8.448-.79-13.659-16.477-32.917-26.648-54.226-28.641-21.307-1.987-42.119 4.433-58.595 18.092-20.52 17.011-23.375 47.545-6.364 68.065 9.954 12.006 27.819 13.677 39.827 3.724 6.635-5.501 7.559-15.375 2.058-22.011-2.69-3.246-7.521-3.698-10.769-1.006-2.551 2.113-6.333 1.762-8.448-.79-2.115-2.551-1.761-6.333.79-8.448 8.34-6.916 20.751-5.754 27.665 2.586 9.724 11.729 8.092 29.183-3.637 38.907-7.505 6.22-16.617 9.254-25.677 9.255z" fill="#58a2cc" data-original="#58a2cc"></path></g><g><path d="m346.161 276.44c-8.951 0-18.018-.458-27.199-1.376l-.118-.014c-23.038-2.765-43.889-10.818-64.054-18.608-11.566-4.468-23.526-9.088-35.78-12.662-46.284-14.142-96.59-9.843-145.552 12.414-3.016 1.371-6.574.038-7.945-2.979s-.037-6.574 2.979-7.945c51.665-23.484 104.901-27.975 153.952-12.988 12.669 3.695 24.871 8.408 36.671 12.966 20.353 7.862 39.58 15.29 61.102 17.881 42.349 4.221 82.172-1.791 118.373-17.88 3.029-1.344 6.574.019 7.919 3.046 1.347 3.028-.018 6.574-3.046 7.92-30.27 13.454-62.901 20.225-97.302 20.225z" fill="#58a2cc" data-original="#58a2cc"></path></g><g><path d="m354.029 323.968c-8.244 0-16.597-.46-25.053-1.382l-.128-.016c-21.247-2.78-40.422-10.856-58.967-18.668-10.591-4.461-21.543-9.074-32.746-12.637-42.226-14.066-88.129-9.781-132.822 12.37-2.97 1.469-6.568.258-8.041-2.712-1.472-2.969-.257-6.568 2.711-8.04 47.593-23.589 96.648-28.095 141.866-13.028 11.644 3.702 22.851 8.423 33.689 12.988 18.609 7.838 36.188 15.242 55.801 17.819 38.651 4.204 75.015-1.785 108.068-17.803 2.981-1.444 6.569-.2 8.016 2.783 1.445 2.981.199 6.57-2.783 8.016-27.875 13.51-57.926 20.31-89.611 20.31z" fill="#58a2cc" data-original="#58a2cc"></path></g></g></g></svg>