<svg xmlns="http://www.w3.org/2000/svg" version="1.1" xmlnsXlink="http://www.w3.org/1999/xlink" xmlnsSvgjs="http://svgjs.com/svgjs" width="512" height="512" x="0" y="0" viewBox="0 0 512 512" style="enable-background:new 0 0 512 512" xml:space="preserve" class=""><g><g><g><g><g><g fill="#7dc7ff"><path d="m160 359.732c-4.263 0-7.732-3.468-7.732-7.732s3.468-7.732 7.732-7.732 7.732 3.468 7.732 7.732-3.469 7.732-7.732 7.732zm0-13.948c-3.428 0-6.217 2.789-6.217 6.216 0 3.428 2.789 6.216 6.217 6.216s6.216-2.789 6.216-6.216c0-3.428-2.788-6.216-6.216-6.216z" fill="#7dc7ff" data-original="#7dc7ff"></path><path d="m160 360.731c-4.814 0-8.731-3.917-8.731-8.731s3.917-8.731 8.731-8.731 8.731 3.917 8.731 8.731-3.917 8.731-8.731 8.731zm0-13.948c-2.876 0-5.216 2.34-5.216 5.217s2.34 5.217 5.216 5.217 5.216-2.34 5.216-5.217-2.34-5.217-5.216-5.217z" fill="#7dc7ff" data-original="#7dc7ff"></path></g></g><g><g fill="#7dc7ff"><path d="m160 345.784c-.418 0-.758-.339-.758-.758v-24.268c0-.418.339-.758.758-.758.418 0 .758.339.758.758v24.268c0 .418-.34.758-.758.758z" fill="#7dc7ff" data-original="#7dc7ff"></path><path d="m160 346.783c-.969 0-1.758-.788-1.758-1.757v-24.269c0-.97.789-1.758 1.758-1.758s1.758.788 1.758 1.758v24.269c0 .969-.789 1.757-1.758 1.757z" fill="#7dc7ff" data-original="#7dc7ff"></path></g></g><g><g fill="#7dc7ff"><path d="m164.931 347.826c-.194 0-.388-.074-.536-.222-.296-.296-.296-.776 0-1.071l17.16-17.16c.296-.296.775-.296 1.071 0s.296.776 0 1.071l-17.16 17.16c-.147.148-.341.222-.535.222z" fill="#7dc7ff" data-original="#7dc7ff"></path><path d="m164.932 348.826c-.468 0-.909-.183-1.242-.514-.687-.687-.687-1.801-.001-2.486l17.16-17.161c.685-.683 1.799-.686 2.484-.001.687.687.687 1.802.001 2.487l-17.16 17.16c-.333.333-.774.515-1.242.515z" fill="#7dc7ff" data-original="#7dc7ff"></path></g></g><g><g fill="#7dc7ff"><path d="m191.242 352.758h-24.268c-.418 0-.758-.339-.758-.758 0-.418.339-.758.758-.758h24.268c.418 0 .758.339.758.758 0 .418-.339.758-.758.758z" fill="#7dc7ff" data-original="#7dc7ff"></path><path d="m191.242 353.758h-24.268c-.969 0-1.758-.788-1.758-1.758s.789-1.758 1.758-1.758h24.268c.969 0 1.758.788 1.758 1.758s-.789 1.758-1.758 1.758z" fill="#7dc7ff" data-original="#7dc7ff"></path></g></g><g><g fill="#7dc7ff"><path d="m182.092 374.849c-.194 0-.388-.074-.536-.222l-17.16-17.16c-.296-.296-.296-.776 0-1.071.296-.296.775-.296 1.071 0l17.16 17.16c.296.296.296.776 0 1.071-.148.148-.341.222-.535.222z" fill="#7dc7ff" data-original="#7dc7ff"></path><path d="m182.092 375.85c-.47 0-.912-.184-1.244-.517l-17.159-17.159c-.686-.686-.686-1.8 0-2.485.684-.685 1.799-.686 2.485-.001l17.161 17.161c.333.332.515.774.515 1.244s-.184.911-.516 1.242c-.331.331-.772.515-1.242.515z" fill="#7dc7ff" data-original="#7dc7ff"></path></g></g><g><g fill="#7dc7ff"><path d="m160 384c-.418 0-.758-.339-.758-.758v-24.268c0-.418.339-.758.758-.758.418 0 .758.339.758.758v24.268c0 .419-.34.758-.758.758z" fill="#7dc7ff" data-original="#7dc7ff"></path><path d="m160 385c-.969 0-1.758-.788-1.758-1.758v-24.269c0-.969.789-1.757 1.758-1.757s1.758.788 1.758 1.757v24.269c0 .97-.789 1.758-1.758 1.758z" fill="#7dc7ff" data-original="#7dc7ff"></path></g></g><g><g fill="#7dc7ff"><path d="m137.908 374.849c-.194 0-.388-.074-.536-.222-.296-.296-.296-.776 0-1.071l17.16-17.16c.296-.296.776-.296 1.071 0 .296.296.296.776 0 1.071l-17.16 17.16c-.147.148-.341.222-.535.222z" fill="#7dc7ff" data-original="#7dc7ff"></path><path d="m137.908 375.85c-.47 0-.912-.184-1.244-.517-.33-.329-.513-.771-.514-1.24 0-.47.183-.912.515-1.244l17.16-17.16c.687-.686 1.802-.685 2.486 0 .685.686.685 1.8 0 2.484l-17.161 17.161c-.33.332-.772.516-1.242.516z" fill="#7dc7ff" data-original="#7dc7ff"></path></g></g><g><g fill="#7dc7ff"><path d="m153.026 352.758h-24.268c-.418 0-.758-.339-.758-.758 0-.418.339-.758.758-.758h24.268c.418 0 .758.339.758.758-.001.418-.34.758-.758.758z" fill="#7dc7ff" data-original="#7dc7ff"></path><path d="m153.026 353.758h-24.268c-.969 0-1.758-.788-1.758-1.758s.789-1.758 1.758-1.758h24.268c.969 0 1.758.788 1.758 1.758s-.789 1.758-1.758 1.758z" fill="#7dc7ff" data-original="#7dc7ff"></path></g></g><g><g fill="#7dc7ff"><path d="m155.069 347.826c-.194 0-.388-.074-.536-.222l-17.16-17.16c-.296-.296-.296-.776 0-1.071.296-.296.776-.296 1.071 0l17.16 17.16c.296.296.296.776 0 1.071-.148.148-.342.222-.535.222z" fill="#7dc7ff" data-original="#7dc7ff"></path><path d="m155.068 348.826c-.468 0-.909-.183-1.242-.514l-17.161-17.161c-.686-.686-.686-1.801 0-2.486.685-.683 1.799-.686 2.484-.001l17.162 17.162c.685.686.685 1.8 0 2.484-.333.334-.774.516-1.243.516z" fill="#7dc7ff" data-original="#7dc7ff"></path></g></g><g><g fill="#7dc7ff"><path d="m159.996 339.242-7.45-7.469c-.296-.296-.295-.776.001-1.071.296-.296.776-.295 1.071.001l6.386 6.402 6.494-6.406c.298-.294.777-.291 1.071.007s.29.778-.007 1.071z" fill="#7dc7ff" data-original="#7dc7ff"></path><path d="m159.99 340.651-8.152-8.172c-.332-.333-.514-.774-.513-1.244s.184-.911.517-1.242c.33-.33.771-.513 1.24-.513h.002c.469.001.91.184 1.242.517l5.684 5.697 5.786-5.707c.69-.68 1.805-.673 2.484.016.682.69.674 1.806-.016 2.486z" fill="#7dc7ff" data-original="#7dc7ff"></path></g></g><g><g fill="#7dc7ff"><path d="m160.017 332.306-4.859-4.871c-.296-.296-.295-.776.001-1.071.296-.296.776-.295 1.071.001l3.795 3.804 3.861-3.809c.298-.294.777-.291 1.071.007s.291.778-.007 1.071z" fill="#7dc7ff" data-original="#7dc7ff"></path><path d="m160.011 333.717-5.561-5.575c-.332-.332-.514-.774-.513-1.244s.185-.911.517-1.242c.331-.33.772-.513 1.241-.513h.002c.469.001.91.184 1.242.517l3.093 3.101 3.153-3.11c.333-.33.735-.48 1.246-.507.47.003.91.188 1.24.523.681.689.673 1.805-.017 2.485z" fill="#7dc7ff" data-original="#7dc7ff"></path></g></g><g><g fill="#7dc7ff"><path d="m179.652 343.048c-.002 0-.004 0-.005 0l-10.628-.073.013-10.549c0-.418.34-.757.758-.757h.001c.419.001.757.34.757.759l-.011 9.042 9.122.062c.419.003.755.344.753.763-.005.417-.344.753-.76.753z" fill="#7dc7ff" data-original="#7dc7ff"></path><path d="m179.652 344.048h-.005l-11.63-.079.015-11.543c.001-.969.79-1.756 1.758-1.756.971.002 1.758.792 1.757 1.76l-.01 8.048 8.127.055c.969.007 1.752.801 1.746 1.771-.007.961-.795 1.744-1.758 1.744zm-.001-2c.001 0 .001 0 0 0z" fill="#7dc7ff" data-original="#7dc7ff"></path></g></g><g><g fill="#7dc7ff"><path d="m180.872 338.134c-.002 0-.004 0-.005 0l-6.93-.047.008-6.88c0-.418.34-.757.758-.757h.001c.419.001.757.34.757.759l-.007 5.373 5.423.037c.419.003.755.344.753.763-.003.416-.342.752-.758.752z" fill="#7dc7ff" data-original="#7dc7ff"></path><path d="m180.873 339.134-7.936-.055.009-7.874c.001-.969.79-1.756 1.758-1.756.971.002 1.758.792 1.757 1.76l-.005 4.38 4.429.029c.969.007 1.752.801 1.746 1.771-.008.962-.796 1.745-1.758 1.745zm-.002-2h.002c-.001 0-.001 0-.002 0z" fill="#7dc7ff" data-original="#7dc7ff"></path></g></g><g><g fill="#7dc7ff"><path d="m180.762 359.788c-.196 0-.391-.075-.539-.226l-7.464-7.567 7.468-7.45c.296-.295.776-.295 1.071.001.296.296.295.776-.001 1.071l-6.402 6.386 6.406 6.494c.294.298.29.777-.007 1.071-.148.147-.34.22-.532.22z" fill="#7dc7ff" data-original="#7dc7ff"></path><path d="m180.762 360.788c-.474 0-.918-.186-1.251-.523l-8.163-8.274 8.173-8.152c.687-.685 1.801-.684 2.485.003.333.333.514.774.514 1.244s-.184.911-.517 1.242l-5.697 5.683 5.708 5.786c.68.688.673 1.804-.016 2.485-.335.327-.773.506-1.236.506z" fill="#7dc7ff" data-original="#7dc7ff"></path></g></g><g><g fill="#7dc7ff"><path d="m185.1 357.176c-.196 0-.391-.075-.539-.226l-4.867-4.934 4.871-4.859c.296-.295.776-.295 1.071.001.296.296.295.776-.001 1.071l-3.804 3.795 3.809 3.861c.294.298.291.777-.007 1.071-.149.147-.341.22-.533.22z" fill="#7dc7ff" data-original="#7dc7ff"></path><path d="m185.1 358.176c-.475 0-.919-.187-1.252-.524l-5.564-5.641 5.575-5.561c.332-.331.772-.514 1.241-.514h.002c.469.001.91.184 1.242.517.332.332.514.773.514 1.243s-.184.911-.516 1.242l-3.101 3.093 3.11 3.152c.33.334.51.777.506 1.248-.003.47-.189.909-.524 1.238-.329.326-.768.507-1.233.507z" fill="#7dc7ff" data-original="#7dc7ff"></path></g></g><g><g fill="#7dc7ff"><path d="m169.71 372.41c-.002 0-.004 0-.005 0-.419-.003-.755-.344-.753-.763l.073-10.628 10.549.013c.419 0 .757.34.757.758s-.34.757-.758.757h-.001l-9.042-.011-.062 9.122c-.004.416-.342.752-.758.752z" fill="#7dc7ff" data-original="#7dc7ff"></path><path d="m169.71 373.41h-.005c-.477-.003-.917-.189-1.246-.523-.33-.334-.51-.777-.506-1.246l.079-11.623 11.543.014c.97.002 1.757.792 1.756 1.76-.001.969-.79 1.756-1.758 1.756l-8.049-.011-.056 8.128c-.008.962-.796 1.745-1.758 1.745z" fill="#7dc7ff" data-original="#7dc7ff"></path></g></g><g><g fill="#7dc7ff"><path d="m174.624 373.63c-.002 0-.004 0-.005 0-.419-.003-.755-.344-.753-.763l.047-6.93 6.88.008c.419 0 .757.34.757.758s-.34.757-.758.757h-.001l-5.373-.007-.037 5.423c-.002.418-.341.754-.757.754z" fill="#7dc7ff" data-original="#7dc7ff"></path><path d="m174.624 374.63h-.005c-.975-.007-1.758-.8-1.752-1.769l.054-7.925 7.875.01c.468 0 .91.183 1.241.516.332.332.515.773.514 1.243-.001.969-.79 1.756-1.757 1.756l-4.381-.006-.03 4.429c-.008.963-.797 1.746-1.759 1.746z" fill="#7dc7ff" data-original="#7dc7ff"></path></g></g><g><g fill="#7dc7ff"><path d="m152.97 373.52c-.196 0-.391-.075-.539-.226-.294-.298-.291-.777.007-1.071l7.567-7.464 7.45 7.468c.296.296.295.776-.001 1.071-.296.296-.776.295-1.071-.001l-6.386-6.402-6.494 6.406c-.149.146-.341.219-.533.219z" fill="#7dc7ff" data-original="#7dc7ff"></path><path d="m166.917 374.52c-.001 0-.001 0-.002 0-.47 0-.911-.185-1.243-.518l-5.683-5.696-5.786 5.707c-.673.661-1.828.651-2.486-.017-.68-.69-.672-1.805.017-2.485l8.275-8.162 8.152 8.172c.332.333.514.774.513 1.244s-.184.911-.517 1.242c-.329.33-.77.513-1.24.513z" fill="#7dc7ff" data-original="#7dc7ff"></path></g></g><g><g fill="#7dc7ff"><path d="m155.582 377.857c-.196 0-.391-.075-.539-.226-.294-.298-.291-.777.007-1.071l4.934-4.867 4.859 4.871c.296.296.295.776-.001 1.071-.296.296-.776.295-1.071-.001l-3.795-3.804-3.861 3.809c-.149.145-.341.218-.533.218z" fill="#7dc7ff" data-original="#7dc7ff"></path><path d="m155.582 378.857c-.475 0-.919-.187-1.252-.524-.68-.688-.672-1.804.018-2.484l5.642-5.565 5.561 5.575c.331.331.514.772.513 1.242 0 .471-.184.912-.516 1.243-.331.331-.771.514-1.241.514-.001 0-.001 0-.002 0-.469-.001-.91-.184-1.242-.517l-3.093-3.101-3.153 3.11c-.332.328-.771.507-1.235.507z" fill="#7dc7ff" data-original="#7dc7ff"></path></g></g><g><g fill="#7dc7ff"><path d="m150.211 372.33c-.001 0-.001 0 0 0-.419 0-.758-.34-.758-.758l.011-9.042-9.122-.062c-.418-.003-.755-.344-.752-.763.003-.417.341-.753.757-.753h.005l10.628.072-.013 10.549c.001.418-.338.757-.756.757z" fill="#7dc7ff" data-original="#7dc7ff"></path><path d="m150.21 373.33c-.47 0-.911-.183-1.243-.516-.332-.332-.515-.774-.514-1.244l.01-8.048-8.127-.056c-.969-.007-1.752-.801-1.746-1.77.007-.962.795-1.745 1.757-1.745l11.635.079-.015 11.543c0 .97-.788 1.757-1.757 1.757z" fill="#7dc7ff" data-original="#7dc7ff"></path></g></g><g><g fill="#7dc7ff"><path d="m145.297 373.55c-.001 0-.001 0 0 0-.419 0-.758-.34-.758-.758l.007-5.373-5.423-.037c-.418-.003-.755-.344-.752-.763.003-.417.341-.753.757-.753h.005l6.93.047-.009 6.88c0 .419-.339.757-.757.757z" fill="#7dc7ff" data-original="#7dc7ff"></path><path d="m145.296 374.551h-.002c-.969-.002-1.756-.792-1.755-1.76l.005-4.379-4.429-.03c-.47-.003-.91-.189-1.239-.523-.33-.334-.51-.777-.506-1.246.007-.963.795-1.746 1.757-1.746l7.936.054-.009 7.875c-.001.968-.789 1.755-1.758 1.755z" fill="#7dc7ff" data-original="#7dc7ff"></path></g></g><g><g fill="#7dc7ff"><path d="m139.238 359.675c-.194 0-.388-.074-.536-.223-.296-.296-.295-.776.001-1.071l6.402-6.386-6.406-6.494c-.294-.298-.291-.778.007-1.071.298-.294.777-.291 1.071.007l7.464 7.567-7.468 7.45c-.148.148-.341.221-.535.221z" fill="#7dc7ff" data-original="#7dc7ff"></path><path d="m139.238 360.676c-.471 0-.913-.184-1.245-.517s-.513-.774-.513-1.244.184-.911.517-1.242l5.697-5.683-5.708-5.786c-.681-.689-.673-1.805.017-2.485.332-.327.77-.507 1.235-.507h.011c.47.003.91.188 1.24.523l8.163 8.274-8.173 8.152c-.333.332-.773.515-1.241.515z" fill="#7dc7ff" data-original="#7dc7ff"></path></g></g><g><g fill="#7dc7ff"><path d="m134.9 357.063c-.194 0-.388-.074-.536-.223-.296-.296-.295-.776.001-1.071l3.804-3.795-3.809-3.861c-.294-.298-.291-.778.007-1.071.298-.294.777-.291 1.071.007l4.867 4.934-4.871 4.859c-.146.148-.34.221-.534.221z" fill="#7dc7ff" data-original="#7dc7ff"></path><path d="m134.9 358.063c-.47 0-.912-.184-1.245-.517-.331-.331-.513-.772-.513-1.242 0-.471.184-.912.517-1.243l3.101-3.093-3.11-3.153c-.681-.689-.673-1.805.016-2.485.691-.68 1.806-.672 2.485.017l5.566 5.643-5.575 5.561c-.333.33-.773.512-1.242.512z" fill="#7dc7ff" data-original="#7dc7ff"></path></g></g><g><g fill="#7dc7ff"><path d="m150.975 342.981-10.549-.013c-.418-.001-.757-.34-.757-.759.001-.418.34-.757.758-.757h.001l9.042.011.062-9.122c.003-.417.341-.752.757-.752h.005c.418.003.755.344.752.763z" fill="#7dc7ff" data-original="#7dc7ff"></path><path d="m151.969 343.982-11.543-.014c-.97-.002-1.757-.792-1.756-1.76.001-.969.79-1.756 1.758-1.756l8.05.011.055-8.128c.007-.962.795-1.745 1.757-1.745.479.002.92.188 1.25.521s.511.777.507 1.248z" fill="#7dc7ff" data-original="#7dc7ff"></path></g></g><g><g fill="#7dc7ff"><path d="m146.086 338.063-6.88-.009c-.418-.001-.757-.34-.757-.759.001-.418.34-.757.758-.757h.001l5.373.007.037-5.423c.003-.417.341-.752.757-.752h.005c.418.003.755.344.752.763z" fill="#7dc7ff" data-original="#7dc7ff"></path><path d="m147.08 339.063-7.875-.01c-.468 0-.909-.183-1.241-.516-.332-.332-.515-.773-.514-1.243.001-.969.79-1.756 1.757-1.756l4.381.006.03-4.43c.007-.962.795-1.745 1.757-1.745.482.003.922.189 1.251.523.33.334.51.777.506 1.246z" fill="#7dc7ff" data-original="#7dc7ff"></path></g></g></g><g><g><g fill="#7dc7ff"><path d="m207 423.732c-4.263 0-7.732-3.468-7.732-7.732s3.468-7.732 7.732-7.732 7.732 3.468 7.732 7.732-3.469 7.732-7.732 7.732zm0-13.948c-3.428 0-6.217 2.789-6.217 6.216 0 3.428 2.789 6.216 6.217 6.216s6.216-2.789 6.216-6.216c0-3.428-2.788-6.216-6.216-6.216z" fill="#7dc7ff" data-original="#7dc7ff"></path><path d="m207 424.731c-4.814 0-8.731-3.917-8.731-8.731s3.917-8.731 8.731-8.731 8.731 3.917 8.731 8.731-3.917 8.731-8.731 8.731zm0-13.948c-2.876 0-5.216 2.34-5.216 5.217s2.34 5.217 5.216 5.217 5.216-2.34 5.216-5.217-2.34-5.217-5.216-5.217z" fill="#7dc7ff" data-original="#7dc7ff"></path></g></g><g><g fill="#7dc7ff"><path d="m207 409.784c-.418 0-.758-.339-.758-.758v-24.268c0-.418.339-.758.758-.758.418 0 .758.339.758.758v24.268c0 .418-.34.758-.758.758z" fill="#7dc7ff" data-original="#7dc7ff"></path><path d="m207 410.783c-.969 0-1.758-.788-1.758-1.757v-24.269c0-.97.789-1.758 1.758-1.758s1.758.788 1.758 1.758v24.269c0 .969-.789 1.757-1.758 1.757z" fill="#7dc7ff" data-original="#7dc7ff"></path></g></g><g><g fill="#7dc7ff"><path d="m211.931 411.826c-.194 0-.388-.074-.536-.222-.296-.296-.296-.776 0-1.071l17.16-17.16c.296-.296.775-.296 1.071 0s.296.776 0 1.071l-17.16 17.16c-.147.148-.341.222-.535.222z" fill="#7dc7ff" data-original="#7dc7ff"></path><path d="m211.932 412.826c-.468 0-.909-.183-1.242-.514-.687-.687-.687-1.801-.001-2.486l17.16-17.161c.686-.684 1.8-.685 2.484-.001.687.687.687 1.802.001 2.487l-17.16 17.16c-.333.333-.774.515-1.242.515z" fill="#7dc7ff" data-original="#7dc7ff"></path></g></g><g><g fill="#7dc7ff"><path d="m238.242 416.758h-24.268c-.418 0-.758-.339-.758-.758 0-.418.339-.758.758-.758h24.268c.418 0 .758.339.758.758 0 .418-.339.758-.758.758z" fill="#7dc7ff" data-original="#7dc7ff"></path><path d="m238.242 417.758h-24.268c-.969 0-1.758-.788-1.758-1.758s.789-1.758 1.758-1.758h24.268c.969 0 1.758.788 1.758 1.758s-.789 1.758-1.758 1.758z" fill="#7dc7ff" data-original="#7dc7ff"></path></g></g><g><g fill="#7dc7ff"><path d="m229.092 438.849c-.194 0-.388-.074-.536-.222l-17.16-17.16c-.296-.296-.296-.776 0-1.071.296-.296.775-.296 1.071 0l17.16 17.16c.296.296.296.776 0 1.071-.148.148-.341.222-.535.222z" fill="#7dc7ff" data-original="#7dc7ff"></path><path d="m229.092 439.85c-.47 0-.912-.184-1.244-.517l-17.159-17.159c-.686-.686-.686-1.8 0-2.485.685-.686 1.799-.685 2.485-.001l17.161 17.161c.333.332.515.774.515 1.244s-.184.911-.516 1.242c-.331.331-.772.515-1.242.515z" fill="#7dc7ff" data-original="#7dc7ff"></path></g></g><g><g fill="#7dc7ff"><path d="m207 448c-.418 0-.758-.339-.758-.758v-24.268c0-.418.339-.758.758-.758.418 0 .758.339.758.758v24.268c0 .419-.34.758-.758.758z" fill="#7dc7ff" data-original="#7dc7ff"></path><path d="m207 449c-.969 0-1.758-.788-1.758-1.758v-24.269c0-.969.789-1.757 1.758-1.757s1.758.788 1.758 1.757v24.269c0 .97-.789 1.758-1.758 1.758z" fill="#7dc7ff" data-original="#7dc7ff"></path></g></g><g><g fill="#7dc7ff"><path d="m184.908 438.849c-.194 0-.388-.074-.536-.222-.296-.296-.296-.776 0-1.071l17.16-17.16c.296-.296.776-.296 1.071 0 .296.296.296.776 0 1.071l-17.16 17.16c-.147.148-.341.222-.535.222z" fill="#7dc7ff" data-original="#7dc7ff"></path><path d="m184.908 439.85c-.47 0-.912-.184-1.244-.517-.33-.329-.513-.771-.514-1.24 0-.47.183-.912.515-1.244l17.16-17.16c.686-.685 1.802-.685 2.486 0 .685.686.685 1.8 0 2.484l-17.161 17.161c-.33.332-.772.516-1.242.516z" fill="#7dc7ff" data-original="#7dc7ff"></path></g></g><g><g fill="#7dc7ff"><path d="m200.026 416.758h-24.268c-.418 0-.758-.339-.758-.758 0-.418.339-.758.758-.758h24.268c.418 0 .758.339.758.758-.001.418-.34.758-.758.758z" fill="#7dc7ff" data-original="#7dc7ff"></path><path d="m200.026 417.758h-24.268c-.969 0-1.758-.788-1.758-1.758s.789-1.758 1.758-1.758h24.268c.969 0 1.758.788 1.758 1.758s-.789 1.758-1.758 1.758z" fill="#7dc7ff" data-original="#7dc7ff"></path></g></g><g><g fill="#7dc7ff"><path d="m202.069 411.826c-.194 0-.388-.074-.536-.222l-17.16-17.16c-.296-.296-.296-.776 0-1.071.296-.296.776-.296 1.071 0l17.16 17.16c.296.296.296.776 0 1.071-.148.148-.342.222-.535.222z" fill="#7dc7ff" data-original="#7dc7ff"></path><path d="m202.068 412.826c-.468 0-.909-.183-1.242-.514l-17.161-17.161c-.686-.686-.686-1.801 0-2.486.686-.684 1.8-.685 2.484-.001l17.162 17.162c.685.686.685 1.8 0 2.484-.333.334-.774.516-1.243.516z" fill="#7dc7ff" data-original="#7dc7ff"></path></g></g><g><g fill="#7dc7ff"><path d="m206.996 403.242-7.45-7.469c-.296-.296-.295-.776.001-1.071.296-.296.776-.295 1.071.001l6.386 6.402 6.494-6.406c.298-.294.777-.291 1.071.007s.29.778-.007 1.071z" fill="#7dc7ff" data-original="#7dc7ff"></path><path d="m206.99 404.651-8.152-8.172c-.332-.333-.514-.774-.513-1.244s.184-.911.517-1.242c.33-.33.771-.513 1.24-.513h.002c.469.001.91.184 1.242.517l5.684 5.697 5.786-5.707c.69-.68 1.805-.673 2.484.016.682.69.674 1.806-.016 2.486z" fill="#7dc7ff" data-original="#7dc7ff"></path></g></g><g><g fill="#7dc7ff"><path d="m207.017 396.306-4.859-4.871c-.296-.296-.295-.776.001-1.071.296-.296.776-.295 1.071.001l3.795 3.804 3.861-3.809c.298-.294.777-.291 1.071.007s.291.778-.007 1.071z" fill="#7dc7ff" data-original="#7dc7ff"></path><path d="m207.011 397.717-5.561-5.575c-.332-.332-.514-.774-.513-1.244s.185-.911.517-1.242c.331-.33.772-.513 1.241-.513h.002c.469.001.91.184 1.242.517l3.093 3.101 3.153-3.11c.331-.327.769-.507 1.234-.507h.011c.47.003.91.188 1.24.523.681.689.673 1.805-.017 2.485z" fill="#7dc7ff" data-original="#7dc7ff"></path></g></g><g><g fill="#7dc7ff"><path d="m226.652 407.048c-.002 0-.004 0-.005 0l-10.628-.073.013-10.549c0-.418.34-.757.758-.757h.001c.419.001.757.34.757.759l-.011 9.042 9.122.062c.419.003.755.344.753.763-.005.417-.344.753-.76.753z" fill="#7dc7ff" data-original="#7dc7ff"></path><path d="m226.652 408.048h-.005l-11.63-.079.015-11.543c.001-.969.79-1.756 1.758-1.756.971.002 1.758.792 1.757 1.76l-.01 8.048 8.127.055c.969.007 1.752.801 1.746 1.771-.007.961-.795 1.744-1.758 1.744zm-.001-2c.001 0 .001 0 0 0z" fill="#7dc7ff" data-original="#7dc7ff"></path></g></g><g><g fill="#7dc7ff"><path d="m227.872 402.134c-.002 0-.004 0-.005 0l-6.93-.047.008-6.88c0-.418.34-.757.758-.757h.001c.419.001.757.34.757.759l-.007 5.373 5.423.037c.419.003.755.344.753.763-.003.416-.342.752-.758.752z" fill="#7dc7ff" data-original="#7dc7ff"></path><path d="m227.873 403.134-7.936-.055.009-7.874c.001-.969.79-1.756 1.758-1.756.971.002 1.758.792 1.757 1.76l-.005 4.38 4.429.029c.969.007 1.752.801 1.746 1.771-.008.962-.796 1.745-1.758 1.745zm-.002-2h.002c-.001 0-.001 0-.002 0z" fill="#7dc7ff" data-original="#7dc7ff"></path></g></g><g><g fill="#7dc7ff"><path d="m227.762 423.788c-.196 0-.391-.075-.539-.226l-7.464-7.567 7.468-7.45c.296-.295.776-.295 1.071.001.296.296.295.776-.001 1.071l-6.402 6.386 6.406 6.494c.294.298.29.777-.007 1.071-.148.147-.34.22-.532.22z" fill="#7dc7ff" data-original="#7dc7ff"></path><path d="m227.762 424.788c-.474 0-.918-.186-1.251-.523l-8.163-8.274 8.173-8.152c.687-.685 1.802-.684 2.485.003.333.333.514.774.514 1.244s-.184.911-.517 1.242l-5.697 5.683 5.708 5.786c.68.688.673 1.804-.016 2.485-.335.327-.773.506-1.236.506z" fill="#7dc7ff" data-original="#7dc7ff"></path></g></g><g><g fill="#7dc7ff"><path d="m232.1 421.176c-.196 0-.391-.075-.539-.226l-4.867-4.934 4.871-4.859c.296-.295.776-.295 1.071.001.296.296.295.776-.001 1.071l-3.804 3.795 3.809 3.861c.294.298.291.777-.007 1.071-.149.147-.341.22-.533.22z" fill="#7dc7ff" data-original="#7dc7ff"></path><path d="m232.1 422.176c-.475 0-.919-.187-1.252-.524l-5.564-5.641 5.575-5.561c.332-.332.763-.518 1.243-.514.469.001.91.184 1.242.517.332.332.514.773.514 1.243s-.184.911-.516 1.242l-3.101 3.093 3.11 3.152c.33.334.51.777.506 1.248-.003.47-.189.909-.524 1.238-.329.326-.768.507-1.233.507z" fill="#7dc7ff" data-original="#7dc7ff"></path></g></g><g><g fill="#7dc7ff"><path d="m216.71 436.41c-.002 0-.004 0-.005 0-.419-.003-.755-.344-.753-.763l.073-10.628 10.549.013c.419 0 .757.34.757.758s-.34.757-.758.757h-.001l-9.042-.011-.062 9.122c-.004.416-.342.752-.758.752z" fill="#7dc7ff" data-original="#7dc7ff"></path><path d="m216.71 437.41h-.005c-.477-.003-.917-.189-1.246-.523-.33-.334-.51-.777-.506-1.246l.079-11.623 11.543.014c.97.002 1.757.792 1.756 1.76-.001.969-.79 1.756-1.758 1.756l-8.049-.011-.056 8.128c-.008.962-.796 1.745-1.758 1.745z" fill="#7dc7ff" data-original="#7dc7ff"></path></g></g><g><g fill="#7dc7ff"><path d="m221.624 437.63c-.002 0-.004 0-.005 0-.419-.003-.755-.344-.753-.763l.047-6.93 6.88.008c.419 0 .757.34.757.758s-.34.757-.758.757h-.001l-5.373-.007-.037 5.423c-.002.418-.341.754-.757.754z" fill="#7dc7ff" data-original="#7dc7ff"></path><path d="m221.624 438.63h-.005c-.975-.007-1.758-.8-1.752-1.769l.054-7.925 7.875.01c.468 0 .91.183 1.241.516.332.332.515.773.514 1.243-.001.969-.79 1.756-1.757 1.756l-4.381-.006-.03 4.429c-.008.963-.797 1.746-1.759 1.746z" fill="#7dc7ff" data-original="#7dc7ff"></path></g></g><g><g fill="#7dc7ff"><path d="m199.97 437.52c-.196 0-.391-.075-.539-.226-.294-.298-.291-.777.007-1.071l7.567-7.464 7.45 7.468c.296.296.295.776-.001 1.071-.296.296-.776.295-1.071-.001l-6.386-6.402-6.494 6.406c-.149.146-.341.219-.533.219z" fill="#7dc7ff" data-original="#7dc7ff"></path><path d="m213.917 438.52c-.001 0-.001 0-.002 0-.47 0-.911-.185-1.243-.518l-5.683-5.696-5.786 5.707c-.672.661-1.827.651-2.486-.017-.68-.69-.672-1.805.017-2.485l8.275-8.162 8.152 8.172c.332.333.514.774.513 1.244s-.184.911-.517 1.242c-.329.33-.77.513-1.24.513z" fill="#7dc7ff" data-original="#7dc7ff"></path></g></g><g><g fill="#7dc7ff"><path d="m202.582 441.857c-.196 0-.391-.075-.539-.226-.294-.298-.291-.777.007-1.071l4.934-4.867 4.859 4.871c.296.296.295.776-.001 1.071-.296.296-.776.295-1.071-.001l-3.795-3.804-3.861 3.809c-.149.145-.341.218-.533.218z" fill="#7dc7ff" data-original="#7dc7ff"></path><path d="m202.582 442.857c-.475 0-.919-.187-1.252-.524-.68-.688-.672-1.804.018-2.484l5.642-5.565 5.561 5.575c.331.331.514.772.513 1.242 0 .471-.184.912-.516 1.243-.331.331-.771.514-1.241.514-.001 0-.001 0-.002 0-.469-.001-.91-.184-1.242-.517l-3.093-3.101-3.153 3.11c-.332.328-.771.507-1.235.507z" fill="#7dc7ff" data-original="#7dc7ff"></path></g></g><g><g fill="#7dc7ff"><path d="m197.211 436.33c-.001 0-.001 0 0 0-.419 0-.758-.34-.758-.758l.011-9.042-9.122-.062c-.418-.003-.755-.344-.752-.763.003-.417.341-.753.757-.753h.005l10.628.072-.013 10.549c.001.418-.338.757-.756.757z" fill="#7dc7ff" data-original="#7dc7ff"></path><path d="m197.21 437.33c-.47 0-.911-.183-1.243-.516-.332-.332-.515-.774-.514-1.244l.01-8.048-8.127-.056c-.969-.007-1.752-.801-1.746-1.77.007-.962.795-1.745 1.757-1.745l11.635.079-.015 11.543c0 .97-.788 1.757-1.757 1.757z" fill="#7dc7ff" data-original="#7dc7ff"></path></g></g><g><g fill="#7dc7ff"><path d="m192.297 437.55c-.001 0-.001 0 0 0-.419 0-.758-.34-.758-.758l.007-5.373-5.423-.037c-.418-.003-.755-.344-.752-.763.003-.417.341-.753.757-.753h.005l6.93.047-.009 6.88c0 .419-.339.757-.757.757z" fill="#7dc7ff" data-original="#7dc7ff"></path><path d="m192.296 438.551h-.002c-.969-.002-1.756-.792-1.755-1.76l.005-4.379-4.429-.03c-.47-.003-.91-.189-1.239-.523-.33-.334-.51-.777-.506-1.246.007-.963.795-1.746 1.757-1.746l7.936.054-.009 7.875c-.001.968-.789 1.755-1.758 1.755z" fill="#7dc7ff" data-original="#7dc7ff"></path></g></g><g><g fill="#7dc7ff"><path d="m186.238 423.675c-.194 0-.388-.074-.536-.223-.296-.296-.295-.776.001-1.071l6.402-6.386-6.406-6.494c-.294-.298-.291-.778.007-1.071.298-.294.777-.291 1.071.007l7.464 7.567-7.468 7.45c-.148.148-.341.221-.535.221z" fill="#7dc7ff" data-original="#7dc7ff"></path><path d="m186.238 424.676c-.471 0-.913-.184-1.245-.517s-.513-.774-.513-1.244.184-.911.517-1.242l5.697-5.683-5.708-5.786c-.681-.689-.673-1.805.017-2.485.332-.327.77-.507 1.235-.507h.011c.47.003.91.188 1.24.523l8.163 8.274-8.173 8.152c-.333.332-.773.515-1.241.515z" fill="#7dc7ff" data-original="#7dc7ff"></path></g></g><g><g fill="#7dc7ff"><path d="m181.9 421.063c-.194 0-.388-.074-.536-.223-.296-.296-.295-.776.001-1.071l3.804-3.795-3.809-3.861c-.294-.298-.291-.778.007-1.071.298-.294.777-.291 1.071.007l4.867 4.934-4.871 4.859c-.146.148-.34.221-.534.221z" fill="#7dc7ff" data-original="#7dc7ff"></path><path d="m181.9 422.063c-.47 0-.912-.184-1.245-.517-.331-.331-.513-.772-.513-1.242 0-.471.184-.912.517-1.243l3.101-3.093-3.11-3.153c-.681-.689-.673-1.805.016-2.485.691-.68 1.806-.672 2.485.017l5.566 5.643-5.575 5.561c-.333.33-.773.512-1.242.512z" fill="#7dc7ff" data-original="#7dc7ff"></path></g></g><g><g fill="#7dc7ff"><path d="m197.975 406.981-10.549-.013c-.418-.001-.757-.34-.757-.759.001-.418.34-.757.758-.757h.001l9.042.011.062-9.122c.003-.417.341-.752.757-.752h.005c.418.003.755.344.752.763z" fill="#7dc7ff" data-original="#7dc7ff"></path><path d="m198.969 407.982-11.543-.014c-.97-.002-1.757-.792-1.756-1.76.001-.969.79-1.756 1.758-1.756l8.05.011.055-8.128c.007-.962.795-1.745 1.757-1.745.479.002.92.188 1.25.521s.511.777.507 1.248z" fill="#7dc7ff" data-original="#7dc7ff"></path></g></g><g><g fill="#7dc7ff"><path d="m193.086 402.063-6.88-.009c-.418-.001-.757-.34-.757-.759.001-.418.34-.757.758-.757h.001l5.373.007.037-5.423c.003-.417.341-.752.757-.752h.005c.418.003.755.344.752.763z" fill="#7dc7ff" data-original="#7dc7ff"></path><path d="m194.08 403.063-7.875-.01c-.468 0-.909-.183-1.241-.516-.332-.332-.515-.773-.514-1.243.001-.969.79-1.756 1.757-1.756l4.381.006.03-4.43c.007-.962.795-1.745 1.757-1.745.482.003.922.189 1.251.523.33.334.51.777.506 1.246z" fill="#7dc7ff" data-original="#7dc7ff"></path></g></g></g><g><g><g fill="#7dc7ff"><path d="m304.139 423.732c-4.263 0-7.732-3.468-7.732-7.732s3.468-7.732 7.732-7.732 7.732 3.468 7.732 7.732-3.469 7.732-7.732 7.732zm0-13.948c-3.428 0-6.217 2.789-6.217 6.216 0 3.428 2.789 6.216 6.217 6.216s6.216-2.789 6.216-6.216c0-3.428-2.788-6.216-6.216-6.216z" fill="#7dc7ff" data-original="#7dc7ff"></path><path d="m304.139 424.731c-4.814 0-8.731-3.917-8.731-8.731s3.917-8.731 8.731-8.731 8.731 3.917 8.731 8.731-3.917 8.731-8.731 8.731zm0-13.948c-2.876 0-5.216 2.34-5.216 5.217s2.34 5.217 5.216 5.217c2.877 0 5.217-2.34 5.217-5.217s-2.34-5.217-5.217-5.217z" fill="#7dc7ff" data-original="#7dc7ff"></path></g></g><g><g fill="#7dc7ff"><path d="m304.139 409.784c-.418 0-.758-.339-.758-.758v-24.268c0-.418.339-.758.758-.758.418 0 .758.339.758.758v24.268c0 .418-.34.758-.758.758z" fill="#7dc7ff" data-original="#7dc7ff"></path><path d="m304.139 410.783c-.969 0-1.757-.788-1.757-1.757v-24.269c0-.97.788-1.758 1.757-1.758.97 0 1.758.788 1.758 1.758v24.269c-.001.969-.789 1.757-1.758 1.757z" fill="#7dc7ff" data-original="#7dc7ff"></path></g></g><g><g fill="#7dc7ff"><path d="m309.07 411.826c-.194 0-.388-.074-.536-.222-.296-.296-.296-.776 0-1.071l17.16-17.16c.296-.296.775-.296 1.071 0s.296.776 0 1.071l-17.16 17.16c-.147.148-.341.222-.535.222z" fill="#7dc7ff" data-original="#7dc7ff"></path><path d="m309.07 412.826c-.47 0-.91-.183-1.242-.515-.686-.686-.686-1.8 0-2.485l17.16-17.161c.686-.683 1.799-.686 2.484-.001.687.687.687 1.802.001 2.487l-17.16 17.16c-.334.334-.775.515-1.243.515z" fill="#7dc7ff" data-original="#7dc7ff"></path></g></g><g><g fill="#7dc7ff"><path d="m335.381 416.758h-24.268c-.418 0-.758-.339-.758-.758 0-.418.339-.758.758-.758h24.268c.418 0 .758.339.758.758 0 .418-.339.758-.758.758z" fill="#7dc7ff" data-original="#7dc7ff"></path><path d="m335.382 417.758h-24.269c-.97 0-1.758-.788-1.758-1.758s.788-1.758 1.758-1.758h24.269c.969 0 1.757.788 1.757 1.758s-.788 1.758-1.757 1.758z" fill="#7dc7ff" data-original="#7dc7ff"></path></g></g><g><g fill="#7dc7ff"><path d="m326.231 438.849c-.194 0-.388-.074-.536-.222l-17.16-17.16c-.296-.296-.296-.776 0-1.071.296-.296.775-.296 1.071 0l17.16 17.16c.296.296.296.776 0 1.071-.148.148-.341.222-.535.222z" fill="#7dc7ff" data-original="#7dc7ff"></path><path d="m326.23 439.85c-.471 0-.913-.184-1.244-.518l-17.158-17.158c-.686-.686-.686-1.8 0-2.485.686-.687 1.8-.685 2.485 0l17.16 17.16c.332.332.516.774.515 1.244 0 .47-.184.911-.516 1.242-.33.332-.772.515-1.242.515z" fill="#7dc7ff" data-original="#7dc7ff"></path></g></g><g><g fill="#7dc7ff"><path d="m304.139 448c-.418 0-.758-.339-.758-.758v-24.268c0-.418.339-.758.758-.758.418 0 .758.339.758.758v24.268c0 .419-.34.758-.758.758z" fill="#7dc7ff" data-original="#7dc7ff"></path><path d="m304.139 449c-.969 0-1.757-.788-1.757-1.758v-24.269c0-.969.788-1.757 1.757-1.757.97 0 1.758.788 1.758 1.757v24.269c-.001.97-.789 1.758-1.758 1.758z" fill="#7dc7ff" data-original="#7dc7ff"></path></g></g><g><g fill="#7dc7ff"><path d="m282.047 438.849c-.194 0-.388-.074-.536-.222-.296-.296-.296-.776 0-1.071l17.16-17.16c.296-.296.776-.296 1.071 0 .296.296.296.776 0 1.071l-17.16 17.16c-.147.148-.341.222-.535.222z" fill="#7dc7ff" data-original="#7dc7ff"></path><path d="m282.047 439.85c-.471 0-.913-.184-1.244-.518-.329-.328-.513-.77-.513-1.239-.001-.47.183-.912.515-1.244l17.16-17.16c.686-.687 1.8-.685 2.485 0 .686.686.686 1.8 0 2.485l-17.16 17.16c-.332.333-.773.516-1.243.516z" fill="#7dc7ff" data-original="#7dc7ff"></path></g></g><g><g fill="#7dc7ff"><path d="m297.165 416.758h-24.268c-.418 0-.758-.339-.758-.758 0-.418.339-.758.758-.758h24.268c.418 0 .758.339.758.758 0 .418-.34.758-.758.758z" fill="#7dc7ff" data-original="#7dc7ff"></path><path d="m297.165 417.758h-24.269c-.97 0-1.758-.788-1.758-1.758s.788-1.758 1.758-1.758h24.269c.97 0 1.758.788 1.758 1.758s-.788 1.758-1.758 1.758z" fill="#7dc7ff" data-original="#7dc7ff"></path></g></g><g><g fill="#7dc7ff"><path d="m299.208 411.826c-.194 0-.388-.074-.536-.222l-17.16-17.16c-.296-.296-.296-.776 0-1.071.296-.296.776-.296 1.071 0l17.16 17.16c.296.296.296.776 0 1.071-.148.148-.342.222-.535.222z" fill="#7dc7ff" data-original="#7dc7ff"></path><path d="m299.208 412.826c-.47 0-.911-.183-1.243-.515l-17.16-17.16c-.686-.686-.686-1.801 0-2.486.685-.683 1.798-.686 2.484-.001l17.161 17.162c.686.686.686 1.8 0 2.485-.332.333-.772.515-1.242.515z" fill="#7dc7ff" data-original="#7dc7ff"></path></g></g><g><g fill="#7dc7ff"><path d="m304.135 403.242-7.45-7.469c-.296-.296-.295-.776.001-1.071.296-.296.776-.295 1.071.001l6.386 6.402 6.494-6.406c.298-.294.777-.291 1.071.007s.29.778-.007 1.071z" fill="#7dc7ff" data-original="#7dc7ff"></path><path d="m304.129 404.651-8.152-8.172c-.685-.689-.682-1.805.005-2.486.683-.682 1.799-.685 2.483.003l5.685 5.698 5.786-5.707c.69-.679 1.805-.672 2.485.017.681.689.673 1.805-.018 2.485z" fill="#7dc7ff" data-original="#7dc7ff"></path></g></g><g><g fill="#7dc7ff"><path d="m304.156 396.306-4.859-4.871c-.296-.296-.295-.776.001-1.071.296-.296.776-.295 1.071.001l3.795 3.804 3.861-3.809c.298-.294.777-.291 1.071.007s.291.778-.007 1.071z" fill="#7dc7ff" data-original="#7dc7ff"></path><path d="m304.149 397.717-5.561-5.575c-.331-.331-.514-.772-.514-1.242.001-.471.184-.912.517-1.243.688-.685 1.802-.682 2.485.002l3.093 3.102 3.153-3.11c.69-.68 1.805-.673 2.485.017s.673 1.805-.018 2.485z" fill="#7dc7ff" data-original="#7dc7ff"></path></g></g><g><g fill="#7dc7ff"><path d="m323.791 407.048c-.002 0-.004 0-.005 0l-10.628-.073.013-10.549c0-.418.34-.757.758-.757h.001c.419.001.757.34.757.759l-.011 9.042 9.122.062c.419.003.755.344.753.763-.005.417-.344.753-.76.753z" fill="#7dc7ff" data-original="#7dc7ff"></path><path d="m323.791 408.048h-.005l-11.63-.079.015-11.543c0-.968.788-1.756 1.758-1.756.972.002 1.759.792 1.757 1.761l-.01 8.047 8.127.055c.97.007 1.753.801 1.746 1.771-.007.961-.795 1.744-1.758 1.744zm-.001-2c.001 0 .001 0 0 0z" fill="#7dc7ff" data-original="#7dc7ff"></path></g></g><g><g fill="#7dc7ff"><path d="m325.011 402.134c-.002 0-.004 0-.005 0l-6.93-.047.008-6.88c0-.418.34-.757.758-.757h.001c.419.001.757.34.757.759l-.007 5.373 5.423.037c.419.003.755.344.753.763-.003.416-.342.752-.758.752z" fill="#7dc7ff" data-original="#7dc7ff"></path><path d="m325.012 403.134-7.937-.055.01-7.874c0-.968.788-1.756 1.758-1.756.472.001.913.185 1.244.517.332.333.514.774.513 1.244l-.006 4.379 4.43.029c.969.007 1.752.801 1.745 1.771-.007.962-.795 1.745-1.757 1.745zm-.002-2h.002c-.001 0-.001 0-.002 0z" fill="#7dc7ff" data-original="#7dc7ff"></path></g></g><g><g fill="#7dc7ff"><path d="m324.901 423.788c-.196 0-.391-.075-.539-.226l-7.464-7.567 7.468-7.45c.296-.295.776-.295 1.071.001.296.296.295.776-.001 1.071l-6.402 6.386 6.406 6.494c.294.298.29.777-.007 1.071-.148.147-.34.22-.532.22z" fill="#7dc7ff" data-original="#7dc7ff"></path><path d="m324.901 424.788c-.475 0-.919-.186-1.252-.523l-8.162-8.274 8.173-8.152c.687-.685 1.8-.683 2.484.002.333.335.515.776.514 1.245 0 .47-.185.911-.518 1.242l-5.696 5.683 5.708 5.786c.68.688.672 1.804-.017 2.485-.334.327-.771.506-1.234.506z" fill="#7dc7ff" data-original="#7dc7ff"></path></g></g><g><g fill="#7dc7ff"><path d="m329.239 421.176c-.196 0-.391-.075-.539-.226l-4.867-4.934 4.871-4.859c.296-.295.776-.295 1.071.001.296.296.295.776-.001 1.071l-3.804 3.795 3.809 3.861c.294.298.291.777-.007 1.071-.149.147-.341.22-.533.22z" fill="#7dc7ff" data-original="#7dc7ff"></path><path d="m329.238 422.176c-.474 0-.918-.186-1.251-.523l-5.564-5.642 5.575-5.561c.331-.331.771-.514 1.24-.514h.002c.47.001.911.184 1.242.517.331.331.514.772.514 1.242-.001.471-.184.912-.517 1.243l-3.1 3.093 3.11 3.152c.33.334.51.777.506 1.247-.003.47-.189.91-.524 1.239-.326.326-.766.507-1.233.507z" fill="#7dc7ff" data-original="#7dc7ff"></path></g></g><g><g fill="#7dc7ff"><path d="m313.849 436.41c-.002 0-.004 0-.005 0-.419-.003-.755-.344-.753-.763l.073-10.628 10.549.013c.419 0 .757.34.757.758s-.34.757-.758.757h-.001l-9.042-.011-.062 9.122c-.004.416-.342.752-.758.752z" fill="#7dc7ff" data-original="#7dc7ff"></path><path d="m313.849 437.41h-.005c-.477-.003-.917-.189-1.246-.523-.33-.334-.51-.776-.507-1.246l.08-11.623 11.542.014c.471.001.912.185 1.243.517.332.333.514.774.513 1.244 0 .967-.788 1.755-1.757 1.755l-8.05-.011-.056 8.128c-.006.962-.794 1.745-1.757 1.745z" fill="#7dc7ff" data-original="#7dc7ff"></path></g></g><g><g fill="#7dc7ff"><path d="m318.763 437.63c-.002 0-.004 0-.005 0-.419-.003-.755-.344-.753-.763l.047-6.93 6.88.008c.419 0 .757.34.757.758s-.34.757-.758.757h-.001l-5.373-.007-.037 5.423c-.002.418-.341.754-.757.754z" fill="#7dc7ff" data-original="#7dc7ff"></path><path d="m318.763 438.63h-.005c-.477-.003-.916-.189-1.246-.523-.329-.335-.509-.777-.506-1.246l.054-7.924 7.874.01c.968 0 1.756.788 1.756 1.758-.002.97-.791 1.757-1.758 1.757l-4.381-.006-.03 4.429c-.007.962-.795 1.745-1.758 1.745z" fill="#7dc7ff" data-original="#7dc7ff"></path></g></g><g><g fill="#7dc7ff"><path d="m297.109 437.52c-.196 0-.391-.075-.539-.226-.294-.298-.291-.777.007-1.071l7.567-7.464 7.45 7.468c.296.296.295.776-.001 1.071-.296.296-.776.295-1.071-.001l-6.386-6.402-6.494 6.406c-.149.146-.341.219-.533.219z" fill="#7dc7ff" data-original="#7dc7ff"></path><path d="m311.057 438.52c-.471 0-.913-.184-1.244-.517l-5.684-5.697-5.786 5.707c-.667.661-1.825.653-2.485-.017-.681-.689-.673-1.805.018-2.485l8.274-8.162 8.151 8.172c.332.333.514.774.514 1.244-.001.469-.185.91-.517 1.241-.331.331-.773.514-1.241.514z" fill="#7dc7ff" data-original="#7dc7ff"></path></g></g><g><g fill="#7dc7ff"><path d="m299.721 441.857c-.196 0-.391-.075-.539-.226-.294-.298-.291-.777.007-1.071l4.934-4.867 4.859 4.871c.296.296.295.776-.001 1.071-.296.296-.776.295-1.071-.001l-3.795-3.804-3.861 3.809c-.149.145-.341.218-.533.218z" fill="#7dc7ff" data-original="#7dc7ff"></path><path d="m299.721 442.857c-.474 0-.918-.186-1.251-.523-.329-.334-.51-.776-.507-1.245.003-.47.188-.91.523-1.24l5.642-5.565 5.562 5.575c.332.333.514.775.513 1.245s-.185.911-.518 1.241c-.683.683-1.799.684-2.483-.003l-3.094-3.102-3.152 3.11c-.332.328-.77.507-1.235.507z" fill="#7dc7ff" data-original="#7dc7ff"></path></g></g><g><g fill="#7dc7ff"><path d="m294.35 436.33c-.001 0-.001 0 0 0-.419 0-.758-.34-.758-.758l.011-9.042-9.122-.062c-.418-.003-.755-.344-.752-.763.003-.417.341-.753.757-.753h.005l10.628.072-.013 10.549c.001.418-.338.757-.756.757z" fill="#7dc7ff" data-original="#7dc7ff"></path><path d="m294.35 437.33c-.97 0-1.758-.789-1.758-1.759l.011-8.049-8.128-.056c-.969-.007-1.752-.801-1.745-1.77.007-.962.795-1.745 1.758-1.745l11.634.079-.014 11.543c-.003.97-.792 1.757-1.758 1.757z" fill="#7dc7ff" data-original="#7dc7ff"></path></g></g><g><g fill="#7dc7ff"><path d="m289.436 437.55c-.001 0-.001 0 0 0-.419 0-.758-.34-.758-.758l.007-5.373-5.423-.037c-.418-.003-.755-.344-.752-.763.003-.417.341-.753.757-.753h.005l6.93.047-.009 6.88c0 .419-.339.757-.757.757z" fill="#7dc7ff" data-original="#7dc7ff"></path><path d="m289.436 438.551h-.002c-.969-.002-1.756-.791-1.756-1.759l.006-4.38-4.429-.03c-.47-.003-.91-.189-1.239-.523-.33-.334-.51-.776-.507-1.246.007-.963.795-1.746 1.758-1.746l7.937.054-.01 7.875c-.003.968-.792 1.755-1.758 1.755z" fill="#7dc7ff" data-original="#7dc7ff"></path></g></g><g><g fill="#7dc7ff"><path d="m283.377 423.675c-.194 0-.388-.074-.536-.223-.296-.296-.295-.776.001-1.071l6.402-6.386-6.406-6.494c-.294-.298-.291-.778.007-1.071.298-.294.777-.291 1.071.007l7.464 7.567-7.469 7.45c-.147.148-.34.221-.534.221z" fill="#7dc7ff" data-original="#7dc7ff"></path><path d="m283.377 424.676c-.472 0-.914-.184-1.245-.518-.331-.332-.513-.773-.513-1.243.001-.469.185-.91.517-1.241l5.698-5.684-5.708-5.786c-.329-.334-.51-.776-.507-1.245.003-.47.188-.91.523-1.24.331-.327.77-.507 1.234-.507h.011c.47.003.91.188 1.24.523l8.163 8.274-8.173 8.152c-.33.332-.77.515-1.24.515z" fill="#7dc7ff" data-original="#7dc7ff"></path></g></g><g><g fill="#7dc7ff"><path d="m279.039 421.063c-.194 0-.388-.074-.536-.223-.296-.296-.295-.776.001-1.071l3.804-3.795-3.809-3.861c-.294-.298-.291-.778.007-1.071.298-.294.777-.291 1.071.007l4.867 4.934-4.871 4.859c-.146.148-.34.221-.534.221z" fill="#7dc7ff" data-original="#7dc7ff"></path><path d="m279.039 422.063c-.47 0-.911-.183-1.243-.516-.333-.334-.515-.776-.514-1.246s.185-.911.518-1.241l3.099-3.092-3.11-3.153c-.33-.334-.51-.777-.506-1.247.003-.469.189-.908.523-1.238.689-.679 1.805-.673 2.485.018l5.564 5.642-5.575 5.561c-.331.33-.771.512-1.241.512z" fill="#7dc7ff" data-original="#7dc7ff"></path></g></g><g><g fill="#7dc7ff"><path d="m295.114 406.981-10.549-.013c-.418-.001-.757-.34-.757-.759.001-.418.34-.757.758-.757h.001l9.042.011.062-9.122c.003-.417.341-.752.757-.752h.005c.418.003.755.344.752.763z" fill="#7dc7ff" data-original="#7dc7ff"></path><path d="m296.107 407.982-11.543-.014c-.969-.002-1.756-.791-1.756-1.759.002-.97.791-1.757 1.758-1.757l8.05.011.056-8.128c.007-.962.795-1.745 1.757-1.745.479.002.92.188 1.25.521.331.334.511.777.508 1.248z" fill="#7dc7ff" data-original="#7dc7ff"></path></g></g><g><g fill="#7dc7ff"><path d="m290.225 402.063-6.88-.009c-.418-.001-.757-.34-.757-.759.001-.418.34-.757.758-.757h.001l5.373.007.037-5.423c.003-.417.341-.752.757-.752h.005c.418.003.755.344.752.763z" fill="#7dc7ff" data-original="#7dc7ff"></path><path d="m291.219 403.063-7.874-.01c-.469 0-.911-.184-1.243-.516-.332-.333-.514-.774-.513-1.244 0-.967.788-1.755 1.758-1.755l4.381.006.03-4.43c.007-.962.795-1.745 1.757-1.745.482.003.922.189 1.252.523.329.335.509.777.506 1.246z" fill="#7dc7ff" data-original="#7dc7ff"></path></g></g></g><g><g><g fill="#7dc7ff"><path d="m352 359.732c-4.263 0-7.732-3.468-7.732-7.732s3.468-7.732 7.732-7.732 7.732 3.468 7.732 7.732-3.469 7.732-7.732 7.732zm0-13.948c-3.428 0-6.216 2.789-6.216 6.216 0 3.428 2.789 6.216 6.216 6.216 3.428 0 6.216-2.789 6.216-6.216 0-3.428-2.788-6.216-6.216-6.216z" fill="#7dc7ff" data-original="#7dc7ff"></path><path d="m352 360.731c-4.814 0-8.731-3.917-8.731-8.731s3.917-8.731 8.731-8.731 8.731 3.917 8.731 8.731-3.917 8.731-8.731 8.731zm0-13.948c-2.877 0-5.217 2.34-5.217 5.217s2.34 5.217 5.217 5.217 5.217-2.34 5.217-5.217-2.34-5.217-5.217-5.217z" fill="#7dc7ff" data-original="#7dc7ff"></path></g></g><g><g fill="#7dc7ff"><path d="m352 345.784c-.418 0-.758-.339-.758-.758v-24.268c0-.418.339-.758.758-.758.418 0 .758.339.758.758v24.268c0 .418-.34.758-.758.758z" fill="#7dc7ff" data-original="#7dc7ff"></path><path d="m352 346.783c-.97 0-1.758-.788-1.758-1.757v-24.269c0-.97.788-1.758 1.758-1.758s1.758.788 1.758 1.758v24.269c0 .969-.788 1.757-1.758 1.757z" fill="#7dc7ff" data-original="#7dc7ff"></path></g></g><g><g fill="#7dc7ff"><path d="m356.931 347.826c-.194 0-.388-.074-.536-.222-.296-.296-.296-.776 0-1.071l17.16-17.16c.296-.296.775-.296 1.071 0s.296.776 0 1.071l-17.16 17.16c-.147.148-.341.222-.535.222z" fill="#7dc7ff" data-original="#7dc7ff"></path><path d="m356.932 348.826c-.468 0-.908-.182-1.241-.513-.688-.688-.688-1.802-.002-2.487l17.16-17.161c.685-.683 1.798-.686 2.484-.001.687.687.687 1.802.001 2.487l-17.16 17.16c-.332.333-.773.515-1.242.515z" fill="#7dc7ff" data-original="#7dc7ff"></path></g></g><g><g fill="#7dc7ff"><path d="m383.242 352.758h-24.268c-.418 0-.758-.339-.758-.758 0-.418.339-.758.758-.758h24.268c.418 0 .758.339.758.758 0 .418-.339.758-.758.758z" fill="#7dc7ff" data-original="#7dc7ff"></path><path d="m383.242 353.758h-24.269c-.969 0-1.757-.788-1.757-1.758s.788-1.758 1.757-1.758h24.269c.97 0 1.758.788 1.758 1.758s-.788 1.758-1.758 1.758z" fill="#7dc7ff" data-original="#7dc7ff"></path></g></g><g><g fill="#7dc7ff"><path d="m374.092 374.849c-.194 0-.388-.074-.536-.222l-17.16-17.16c-.296-.296-.296-.776 0-1.071.296-.296.775-.296 1.071 0l17.16 17.16c.296.296.296.776 0 1.071-.148.148-.341.222-.535.222z" fill="#7dc7ff" data-original="#7dc7ff"></path><path d="m374.092 375.85c-.47 0-.911-.183-1.243-.516l-17.16-17.16c-.686-.686-.686-1.8 0-2.485s1.8-.687 2.485 0l17.16 17.16c.332.332.516.774.515 1.244 0 .47-.184.911-.516 1.242-.328.331-.771.515-1.241.515z" fill="#7dc7ff" data-original="#7dc7ff"></path></g></g><g><g fill="#7dc7ff"><path d="m352 384c-.418 0-.758-.339-.758-.758v-24.268c0-.418.339-.758.758-.758.418 0 .758.339.758.758v24.268c0 .419-.34.758-.758.758z" fill="#7dc7ff" data-original="#7dc7ff"></path><path d="m352 385c-.97 0-1.758-.788-1.758-1.758v-24.269c0-.969.788-1.757 1.758-1.757s1.758.788 1.758 1.757v24.269c0 .97-.788 1.758-1.758 1.758z" fill="#7dc7ff" data-original="#7dc7ff"></path></g></g><g><g fill="#7dc7ff"><path d="m329.908 374.849c-.194 0-.388-.074-.536-.222-.296-.296-.296-.776 0-1.071l17.16-17.16c.296-.296.776-.296 1.071 0 .296.296.296.776 0 1.071l-17.16 17.16c-.147.148-.341.222-.535.222z" fill="#7dc7ff" data-original="#7dc7ff"></path><path d="m329.908 375.85c-.47 0-.911-.183-1.243-.516-.331-.33-.515-.771-.515-1.241-.001-.47.183-.912.515-1.244l17.161-17.16c.687-.687 1.801-.685 2.485 0 .686.686.686 1.8 0 2.485l-17.16 17.16c-.332.333-.773.516-1.243.516z" fill="#7dc7ff" data-original="#7dc7ff"></path></g></g><g><g fill="#7dc7ff"><path d="m345.026 352.758h-24.268c-.418 0-.758-.339-.758-.758 0-.418.339-.758.758-.758h24.268c.418 0 .758.339.758.758 0 .418-.34.758-.758.758z" fill="#7dc7ff" data-original="#7dc7ff"></path><path d="m345.026 353.758h-24.269c-.97 0-1.758-.788-1.758-1.758s.788-1.758 1.758-1.758h24.269c.969 0 1.757.788 1.757 1.758s-.788 1.758-1.757 1.758z" fill="#7dc7ff" data-original="#7dc7ff"></path></g></g><g><g fill="#7dc7ff"><path d="m347.069 347.826c-.194 0-.388-.074-.536-.222l-17.16-17.16c-.296-.296-.296-.776 0-1.071.296-.296.776-.296 1.071 0l17.16 17.16c.296.296.296.776 0 1.071-.148.148-.342.222-.535.222z" fill="#7dc7ff" data-original="#7dc7ff"></path><path d="m347.068 348.826c-.47 0-.91-.183-1.242-.515l-17.161-17.16c-.686-.686-.686-1.801 0-2.486s1.8-.684 2.485-.001l17.161 17.162c.686.686.686 1.8 0 2.485-.334.334-.775.515-1.243.515z" fill="#7dc7ff" data-original="#7dc7ff"></path></g></g><g><g fill="#7dc7ff"><path d="m351.996 339.242-7.45-7.469c-.296-.296-.295-.776.001-1.071.296-.296.776-.295 1.071.001l6.386 6.402 6.494-6.406c.298-.294.777-.291 1.071.007s.29.778-.007 1.071z" fill="#7dc7ff" data-original="#7dc7ff"></path><path d="m351.99 340.651-8.152-8.172c-.332-.333-.514-.774-.514-1.244.001-.469.185-.91.517-1.241s.773-.514 1.241-.514h.003c.469.001.91.185 1.241.517l5.684 5.697 5.786-5.707c.689-.679 1.804-.674 2.485.016.681.692.673 1.807-.017 2.486z" fill="#7dc7ff" data-original="#7dc7ff"></path></g></g><g><g fill="#7dc7ff"><path d="m352.017 332.306-4.859-4.871c-.296-.296-.295-.776.001-1.071.296-.296.776-.295 1.071.001l3.795 3.804 3.861-3.809c.298-.294.777-.291 1.071.007s.291.778-.007 1.071z" fill="#7dc7ff" data-original="#7dc7ff"></path><path d="m352.011 333.717-5.561-5.575c-.331-.331-.514-.772-.514-1.242.001-.471.184-.912.517-1.243.331-.331.771-.514 1.241-.514h.001c.471.001.912.184 1.243.517l3.093 3.101 3.152-3.11c.334-.331.768-.513 1.248-.507.47.004.909.189 1.238.524.328.333.509.775.506 1.244-.003.47-.188.91-.523 1.24z" fill="#7dc7ff" data-original="#7dc7ff"></path></g></g><g><g fill="#7dc7ff"><path d="m371.652 343.048c-.002 0-.004 0-.005 0l-10.628-.073.013-10.549c0-.418.34-.757.758-.757h.001c.419.001.757.34.757.759l-.011 9.042 9.122.062c.419.003.755.344.753.763-.005.417-.344.753-.76.753z" fill="#7dc7ff" data-original="#7dc7ff"></path><path d="m371.652 344.048h-.005l-11.63-.079.014-11.543c.002-.969.791-1.756 1.758-1.756.971.002 1.758.791 1.758 1.759l-.011 8.049 8.128.055c.968.007 1.751.8 1.746 1.769-.007.963-.795 1.746-1.758 1.746zm-.001-2c.001 0 .001 0 0 0z" fill="#7dc7ff" data-original="#7dc7ff"></path></g></g><g><g fill="#7dc7ff"><path d="m372.872 338.134c-.002 0-.004 0-.005 0l-6.93-.047.008-6.88c0-.418.34-.757.758-.757h.001c.419.001.757.34.757.759l-.007 5.373 5.423.037c.419.003.755.344.753.763-.003.416-.342.752-.758.752z" fill="#7dc7ff" data-original="#7dc7ff"></path><path d="m372.872 339.134-7.936-.055.01-7.874c0-.968.788-1.756 1.757-1.756.971.002 1.758.791 1.758 1.759l-.006 4.381 4.429.029c.97.007 1.753.801 1.746 1.771-.007.962-.795 1.745-1.758 1.745zm-.002-2h.002c-.001 0-.001 0-.002 0z" fill="#7dc7ff" data-original="#7dc7ff"></path></g></g><g><g fill="#7dc7ff"><path d="m372.762 359.788c-.196 0-.391-.075-.539-.226l-7.464-7.567 7.468-7.45c.296-.295.776-.295 1.071.001.296.296.295.776-.001 1.071l-6.402 6.386 6.406 6.494c.294.298.29.777-.007 1.071-.148.147-.34.22-.532.22z" fill="#7dc7ff" data-original="#7dc7ff"></path><path d="m372.762 360.788c-.474 0-.918-.186-1.251-.523l-8.162-8.274 8.172-8.152c.689-.685 1.804-.681 2.485.003.332.333.514.774.514 1.244-.001.469-.185.91-.517 1.241l-5.697 5.684 5.708 5.786c.679.69.671 1.805-.017 2.485-.335.327-.772.506-1.235.506z" fill="#7dc7ff" data-original="#7dc7ff"></path></g></g><g><g fill="#7dc7ff"><path d="m377.1 357.176c-.196 0-.391-.075-.539-.226l-4.867-4.934 4.871-4.859c.296-.295.776-.295 1.071.001.296.296.295.776-.001 1.071l-3.804 3.795 3.809 3.861c.294.298.291.777-.007 1.071-.149.147-.341.22-.533.22z" fill="#7dc7ff" data-original="#7dc7ff"></path><path d="m377.1 358.176c-.474 0-.918-.186-1.251-.523l-5.565-5.642 5.575-5.561c.331-.331.771-.514 1.241-.514h.001c.471.001.912.184 1.243.517.331.331.514.772.514 1.242-.001.471-.184.912-.517 1.243l-3.101 3.093 3.11 3.152c.33.334.51.777.507 1.248-.004.47-.189.909-.524 1.238-.327.326-.767.507-1.233.507z" fill="#7dc7ff" data-original="#7dc7ff"></path></g></g><g><g fill="#7dc7ff"><path d="m361.71 372.41c-.002 0-.004 0-.005 0-.419-.003-.755-.344-.753-.763l.072-10.628 10.549.013c.419 0 .757.34.757.758s-.34.757-.758.757h-.001l-9.042-.011-.062 9.122c-.003.416-.341.752-.757.752z" fill="#7dc7ff" data-original="#7dc7ff"></path><path d="m361.71 373.41h-.006c-.477-.003-.916-.189-1.246-.523-.329-.335-.509-.777-.506-1.246l.079-11.623 11.543.014c.969.002 1.756.791 1.756 1.759 0 .969-.788 1.757-1.758 1.757l-8.05-.011-.056 8.128c-.006.962-.794 1.745-1.756 1.745z" fill="#7dc7ff" data-original="#7dc7ff"></path></g></g><g><g fill="#7dc7ff"><path d="m366.624 373.63c-.002 0-.004 0-.005 0-.419-.003-.755-.344-.753-.763l.047-6.93 6.88.008c.419 0 .757.34.757.758s-.34.757-.758.757h-.001l-5.373-.007-.037 5.423c-.002.418-.341.754-.757.754z" fill="#7dc7ff" data-original="#7dc7ff"></path><path d="m366.624 374.63h-.005c-.477-.003-.917-.189-1.246-.523-.33-.334-.51-.776-.507-1.246l.054-7.924 7.875.01c.968 0 1.756.788 1.756 1.758-.002.97-.791 1.757-1.758 1.757l-4.381-.006-.03 4.429c-.007.962-.795 1.745-1.758 1.745z" fill="#7dc7ff" data-original="#7dc7ff"></path></g></g><g><g fill="#7dc7ff"><path d="m344.97 373.52c-.196 0-.391-.075-.539-.226-.294-.298-.291-.777.007-1.071l7.567-7.464 7.45 7.468c.296.296.295.776-.001 1.071-.296.296-.776.295-1.071-.001l-6.386-6.402-6.494 6.406c-.149.146-.341.219-.533.219z" fill="#7dc7ff" data-original="#7dc7ff"></path><path d="m358.918 374.52c-.001 0-.002 0-.003 0-.471-.001-.911-.185-1.242-.518l-5.683-5.696-5.786 5.707c-.667.661-1.825.653-2.485-.017-.681-.689-.674-1.805.017-2.485l8.274-8.162 8.152 8.172c.332.333.514.774.514 1.244-.001.469-.185.91-.517 1.241-.331.331-.772.514-1.241.514z" fill="#7dc7ff" data-original="#7dc7ff"></path></g></g><g><g fill="#7dc7ff"><path d="m347.582 377.857c-.196 0-.391-.075-.539-.226-.294-.298-.291-.777.007-1.071l4.934-4.867 4.859 4.871c.296.296.295.776-.001 1.071-.296.296-.776.295-1.071-.001l-3.795-3.804-3.861 3.809c-.149.145-.341.218-.533.218z" fill="#7dc7ff" data-original="#7dc7ff"></path><path d="m347.582 378.857c-.475 0-.919-.186-1.252-.523-.68-.691-.672-1.806.018-2.485l5.642-5.565 5.561 5.575c.331.331.514.772.514 1.242-.001.471-.184.912-.517 1.243-.685.685-1.8.683-2.484-.002l-3.094-3.102-3.153 3.11c-.333.328-.771.507-1.235.507z" fill="#7dc7ff" data-original="#7dc7ff"></path></g></g><g><g fill="#7dc7ff"><path d="m342.211 372.33c-.001 0-.001 0 0 0-.419 0-.758-.34-.758-.758l.011-9.042-9.122-.062c-.418-.003-.755-.344-.752-.763.003-.417.341-.753.757-.753h.005l10.628.072-.013 10.549c.001.418-.338.757-.756.757z" fill="#7dc7ff" data-original="#7dc7ff"></path><path d="m342.211 373.33c-.471 0-.913-.184-1.245-.517-.332-.332-.514-.774-.513-1.244l.011-8.047-8.128-.056c-.969-.007-1.752-.801-1.745-1.77.005-.961.793-1.745 1.757-1.745l11.635.079-.014 11.543c-.002.97-.791 1.757-1.758 1.757z" fill="#7dc7ff" data-original="#7dc7ff"></path></g></g><g><g fill="#7dc7ff"><path d="m337.297 373.55c-.001 0-.001 0 0 0-.419 0-.758-.34-.758-.758l.007-5.373-5.423-.037c-.418-.003-.755-.344-.752-.763.003-.417.341-.753.757-.753h.005l6.93.047-.009 6.88c0 .419-.339.757-.757.757z" fill="#7dc7ff" data-original="#7dc7ff"></path><path d="m337.297 374.551h-.002c-.47-.001-.911-.185-1.242-.517-.332-.333-.515-.774-.514-1.244l.006-4.378-4.43-.03c-.969-.007-1.752-.801-1.745-1.77.007-.963.795-1.746 1.758-1.746l7.936.054-.01 7.875c0 .968-.788 1.756-1.757 1.756z" fill="#7dc7ff" data-original="#7dc7ff"></path></g></g><g><g fill="#7dc7ff"><path d="m331.238 359.675c-.194 0-.388-.074-.536-.223-.296-.296-.295-.776.001-1.071l6.402-6.386-6.406-6.494c-.294-.298-.291-.778.007-1.071.298-.294.777-.291 1.071.007l7.464 7.567-7.469 7.45c-.147.148-.34.221-.534.221z" fill="#7dc7ff" data-original="#7dc7ff"></path><path d="m331.238 360.676c-.472 0-.914-.184-1.245-.518-.331-.332-.513-.773-.513-1.243.001-.469.185-.91.517-1.241l5.697-5.684-5.707-5.786c-.329-.334-.51-.776-.507-1.245.003-.47.188-.91.523-1.24.331-.327.77-.507 1.234-.507h.011c.47.003.91.188 1.24.523l8.162 8.274-8.172 8.152c-.332.333-.773.515-1.24.515z" fill="#7dc7ff" data-original="#7dc7ff"></path></g></g><g><g fill="#7dc7ff"><path d="m326.9 357.063c-.194 0-.388-.074-.536-.223-.296-.296-.295-.776.001-1.071l3.804-3.795-3.809-3.861c-.294-.298-.291-.778.007-1.071.298-.294.777-.291 1.071.007l4.867 4.934-4.871 4.859c-.146.148-.34.221-.534.221z" fill="#7dc7ff" data-original="#7dc7ff"></path><path d="m326.9 358.063c-.472 0-.914-.184-1.245-.518-.33-.33-.513-.771-.513-1.241.001-.471.184-.912.517-1.243l3.101-3.093-3.11-3.153c-.329-.334-.51-.776-.507-1.245.003-.47.188-.91.523-1.24.69-.68 1.805-.674 2.485.018l5.565 5.642-5.575 5.561c-.333.331-.774.512-1.241.512z" fill="#7dc7ff" data-original="#7dc7ff"></path></g></g><g><g fill="#7dc7ff"><path d="m342.975 342.981-10.549-.013c-.418-.001-.757-.34-.757-.759.001-.418.34-.757.758-.757h.001l9.042.011.062-9.122c.003-.417.341-.752.757-.752h.005c.418.003.755.344.752.763z" fill="#7dc7ff" data-original="#7dc7ff"></path><path d="m343.969 343.982-11.543-.014c-.471-.001-.912-.185-1.243-.517-.332-.333-.514-.774-.513-1.244.002-.968.791-1.755 1.758-1.755l8.05.011.055-8.128c.007-.962.795-1.745 1.758-1.745.479.002.92.188 1.25.521.331.334.511.777.508 1.248z" fill="#7dc7ff" data-original="#7dc7ff"></path></g></g><g><g fill="#7dc7ff"><path d="m338.086 338.063-6.88-.009c-.418-.001-.757-.34-.757-.759.001-.418.34-.757.758-.757h.001l5.373.007.037-5.423c.003-.417.341-.752.757-.752h.005c.418.003.755.344.752.763z" fill="#7dc7ff" data-original="#7dc7ff"></path><path d="m339.079 339.063-7.874-.01c-.968 0-1.756-.788-1.756-1.758.002-.97.791-1.757 1.758-1.757l4.382.006.029-4.43c.007-.962.795-1.745 1.758-1.745.482.003.922.189 1.252.523.329.335.509.777.506 1.246z" fill="#7dc7ff" data-original="#7dc7ff"></path></g></g></g><g><g><g fill="#7dc7ff"><path d="m256 359.732c-4.263 0-7.732-3.468-7.732-7.732s3.468-7.732 7.732-7.732 7.732 3.468 7.732 7.732-3.469 7.732-7.732 7.732zm0-13.948c-3.428 0-6.217 2.789-6.217 6.216 0 3.428 2.789 6.216 6.217 6.216s6.216-2.789 6.216-6.216c0-3.428-2.788-6.216-6.216-6.216z" fill="#7dc7ff" data-original="#7dc7ff"></path><path d="m256 360.731c-4.814 0-8.731-3.917-8.731-8.731s3.917-8.731 8.731-8.731 8.731 3.917 8.731 8.731-3.917 8.731-8.731 8.731zm0-13.948c-2.876 0-5.216 2.34-5.216 5.217s2.34 5.217 5.216 5.217c2.877 0 5.217-2.34 5.217-5.217s-2.34-5.217-5.217-5.217z" fill="#7dc7ff" data-original="#7dc7ff"></path></g></g><g><g fill="#7dc7ff"><path d="m256 345.784c-.418 0-.758-.339-.758-.758v-24.268c0-.418.339-.758.758-.758.418 0 .758.339.758.758v24.268c0 .418-.34.758-.758.758z" fill="#7dc7ff" data-original="#7dc7ff"></path><path d="m256 346.783c-.969 0-1.758-.788-1.758-1.757v-24.269c0-.97.789-1.758 1.758-1.758s1.758.788 1.758 1.758v24.269c0 .969-.789 1.757-1.758 1.757z" fill="#7dc7ff" data-original="#7dc7ff"></path></g></g><g><g fill="#7dc7ff"><path d="m260.931 347.826c-.194 0-.388-.074-.536-.222-.296-.296-.296-.776 0-1.071l17.16-17.16c.296-.296.775-.296 1.071 0s.296.776 0 1.071l-17.16 17.16c-.147.148-.341.222-.535.222z" fill="#7dc7ff" data-original="#7dc7ff"></path><path d="m260.932 348.826c-.468 0-.908-.182-1.241-.513-.688-.688-.688-1.802-.002-2.487l17.16-17.161c.685-.683 1.798-.686 2.484-.001.687.687.687 1.802.001 2.487l-17.16 17.16c-.332.333-.773.515-1.242.515z" fill="#7dc7ff" data-original="#7dc7ff"></path></g></g><g><g fill="#7dc7ff"><path d="m287.242 352.758h-24.268c-.418 0-.758-.339-.758-.758 0-.418.339-.758.758-.758h24.268c.418 0 .758.339.758.758 0 .418-.339.758-.758.758z" fill="#7dc7ff" data-original="#7dc7ff"></path><path d="m287.242 353.758h-24.269c-.969 0-1.757-.788-1.757-1.758s.788-1.758 1.757-1.758h24.269c.97 0 1.758.788 1.758 1.758s-.788 1.758-1.758 1.758z" fill="#7dc7ff" data-original="#7dc7ff"></path></g></g><g><g fill="#7dc7ff"><path d="m278.092 374.849c-.194 0-.388-.074-.536-.222l-17.16-17.16c-.296-.296-.296-.776 0-1.071.296-.296.775-.296 1.071 0l17.16 17.16c.296.296.296.776 0 1.071-.148.148-.341.222-.535.222z" fill="#7dc7ff" data-original="#7dc7ff"></path><path d="m278.092 375.85c-.47 0-.911-.183-1.243-.516l-17.16-17.16c-.686-.686-.686-1.8 0-2.485.685-.685 1.799-.687 2.485 0l17.16 17.16c.332.332.516.774.515 1.244 0 .47-.184.911-.516 1.242-.328.331-.771.515-1.241.515z" fill="#7dc7ff" data-original="#7dc7ff"></path></g></g><g><g fill="#7dc7ff"><path d="m256 384c-.418 0-.758-.339-.758-.758v-24.268c0-.418.339-.758.758-.758.418 0 .758.339.758.758v24.268c0 .419-.34.758-.758.758z" fill="#7dc7ff" data-original="#7dc7ff"></path><path d="m256 385c-.969 0-1.758-.788-1.758-1.758v-24.269c0-.969.789-1.757 1.758-1.757s1.758.788 1.758 1.757v24.269c0 .97-.789 1.758-1.758 1.758z" fill="#7dc7ff" data-original="#7dc7ff"></path></g></g><g><g fill="#7dc7ff"><path d="m233.908 374.849c-.194 0-.388-.074-.536-.222-.296-.296-.296-.776 0-1.071l17.16-17.16c.296-.296.776-.296 1.071 0 .296.296.296.776 0 1.071l-17.16 17.16c-.147.148-.341.222-.535.222z" fill="#7dc7ff" data-original="#7dc7ff"></path><path d="m233.908 375.85c-.47 0-.912-.184-1.244-.517-.33-.329-.513-.771-.514-1.24 0-.47.183-.912.515-1.244l17.16-17.16c.687-.686 1.802-.685 2.486 0 .685.686.685 1.8 0 2.484l-17.161 17.161c-.33.332-.772.516-1.242.516z" fill="#7dc7ff" data-original="#7dc7ff"></path></g></g><g><g fill="#7dc7ff"><path d="m249.026 352.758h-24.268c-.418 0-.758-.339-.758-.758 0-.418.339-.758.758-.758h24.268c.418 0 .758.339.758.758-.001.418-.34.758-.758.758z" fill="#7dc7ff" data-original="#7dc7ff"></path><path d="m249.026 353.758h-24.268c-.969 0-1.758-.788-1.758-1.758s.789-1.758 1.758-1.758h24.268c.969 0 1.758.788 1.758 1.758s-.789 1.758-1.758 1.758z" fill="#7dc7ff" data-original="#7dc7ff"></path></g></g><g><g fill="#7dc7ff"><path d="m251.069 347.826c-.194 0-.388-.074-.536-.222l-17.16-17.16c-.296-.296-.296-.776 0-1.071.296-.296.776-.296 1.071 0l17.16 17.16c.296.296.296.776 0 1.071-.148.148-.342.222-.535.222z" fill="#7dc7ff" data-original="#7dc7ff"></path><path d="m251.068 348.826c-.468 0-.909-.183-1.242-.514l-17.161-17.161c-.686-.686-.686-1.801 0-2.486.685-.683 1.799-.686 2.484-.001l17.162 17.162c.685.686.685 1.8 0 2.484-.333.334-.774.516-1.243.516z" fill="#7dc7ff" data-original="#7dc7ff"></path></g></g><g><g fill="#7dc7ff"><path d="m255.996 339.242-7.45-7.469c-.296-.296-.295-.776.001-1.071.296-.296.776-.295 1.071.001l6.386 6.402 6.494-6.406c.298-.294.777-.291 1.071.007s.29.778-.007 1.071z" fill="#7dc7ff" data-original="#7dc7ff"></path><path d="m255.99 340.651-8.152-8.172c-.332-.333-.514-.774-.513-1.244s.184-.911.517-1.242c.331-.33.769-.506 1.243-.513.469.001.91.184 1.242.517l5.684 5.697 5.786-5.707c.689-.679 1.804-.674 2.485.016.681.692.673 1.807-.017 2.486z" fill="#7dc7ff" data-original="#7dc7ff"></path></g></g><g><g fill="#7dc7ff"><path d="m256.017 332.306-4.859-4.871c-.296-.296-.295-.776.001-1.071.296-.296.776-.295 1.071.001l3.795 3.804 3.861-3.809c.298-.294.777-.291 1.071.007s.291.778-.007 1.071z" fill="#7dc7ff" data-original="#7dc7ff"></path><path d="m256.011 333.717-5.561-5.575c-.332-.332-.514-.774-.513-1.244s.185-.911.517-1.242c.331-.33.772-.513 1.241-.513h.002c.469.001.91.184 1.242.517l3.093 3.101 3.152-3.11c.334-.331.755-.513 1.248-.507.47.004.909.189 1.238.524.328.333.509.775.506 1.244-.003.47-.188.91-.523 1.24z" fill="#7dc7ff" data-original="#7dc7ff"></path></g></g><g><g fill="#7dc7ff"><path d="m275.652 343.048c-.002 0-.004 0-.005 0l-10.628-.073.013-10.549c0-.418.34-.757.758-.757h.001c.419.001.757.34.757.759l-.011 9.042 9.122.062c.419.003.755.344.753.763-.005.417-.344.753-.76.753z" fill="#7dc7ff" data-original="#7dc7ff"></path><path d="m275.652 344.048h-.005l-11.63-.079.014-11.543c.002-.969.791-1.756 1.758-1.756.971.002 1.758.791 1.758 1.759l-.011 8.049 8.128.055c.968.007 1.751.8 1.746 1.769-.007.963-.795 1.746-1.758 1.746zm-.001-2c.001 0 .001 0 0 0z" fill="#7dc7ff" data-original="#7dc7ff"></path></g></g><g><g fill="#7dc7ff"><path d="m276.872 338.134c-.002 0-.004 0-.005 0l-6.93-.047.008-6.88c0-.418.34-.757.758-.757h.001c.419.001.757.34.757.759l-.007 5.373 5.423.037c.419.003.755.344.753.763-.003.416-.342.752-.758.752z" fill="#7dc7ff" data-original="#7dc7ff"></path><path d="m276.872 339.134-7.936-.055.01-7.874c0-.968.788-1.756 1.757-1.756.971.002 1.758.791 1.758 1.759l-.006 4.381 4.429.029c.97.007 1.753.801 1.746 1.771-.007.962-.795 1.745-1.758 1.745zm-.002-2h.002c-.001 0-.001 0-.002 0z" fill="#7dc7ff" data-original="#7dc7ff"></path></g></g><g><g fill="#7dc7ff"><path d="m276.762 359.788c-.196 0-.391-.075-.539-.226l-7.464-7.567 7.468-7.45c.296-.295.776-.295 1.071.001.296.296.295.776-.001 1.071l-6.402 6.386 6.406 6.494c.294.298.29.777-.007 1.071-.148.147-.34.22-.532.22z" fill="#7dc7ff" data-original="#7dc7ff"></path><path d="m276.762 360.788c-.474 0-.918-.186-1.251-.523l-8.162-8.274 8.172-8.152c.689-.685 1.804-.681 2.485.003.332.333.514.774.514 1.244-.001.469-.185.91-.517 1.241l-5.697 5.684 5.708 5.786c.679.69.671 1.805-.017 2.485-.335.327-.772.506-1.235.506z" fill="#7dc7ff" data-original="#7dc7ff"></path></g></g><g><g fill="#7dc7ff"><path d="m281.1 357.176c-.196 0-.391-.075-.539-.226l-4.867-4.934 4.871-4.859c.296-.295.776-.295 1.071.001.296.296.295.776-.001 1.071l-3.804 3.795 3.809 3.861c.294.298.291.777-.007 1.071-.149.147-.341.22-.533.22z" fill="#7dc7ff" data-original="#7dc7ff"></path><path d="m281.1 358.176c-.474 0-.918-.186-1.251-.523l-5.565-5.642 5.575-5.561c.331-.331.771-.514 1.241-.514h.001c.471.001.912.184 1.243.517.331.331.514.772.514 1.242-.001.471-.184.912-.517 1.243l-3.101 3.093 3.11 3.152c.33.334.51.777.507 1.248-.004.47-.189.909-.524 1.238-.327.326-.767.507-1.233.507z" fill="#7dc7ff" data-original="#7dc7ff"></path></g></g><g><g fill="#7dc7ff"><path d="m265.71 372.41c-.002 0-.004 0-.005 0-.419-.003-.755-.344-.753-.763l.072-10.628 10.549.013c.419 0 .757.34.757.758s-.34.757-.758.757h-.001l-9.042-.011-.062 9.122c-.003.416-.341.752-.757.752z" fill="#7dc7ff" data-original="#7dc7ff"></path><path d="m265.71 373.41h-.006c-.477-.003-.916-.189-1.246-.523-.329-.335-.509-.777-.506-1.246l.079-11.623 11.543.014c.969.002 1.756.791 1.756 1.759 0 .969-.788 1.757-1.758 1.757l-8.05-.011-.056 8.128c-.006.962-.794 1.745-1.756 1.745z" fill="#7dc7ff" data-original="#7dc7ff"></path></g></g><g><g fill="#7dc7ff"><path d="m270.624 373.63c-.002 0-.004 0-.005 0-.419-.003-.755-.344-.753-.763l.047-6.93 6.88.008c.419 0 .757.34.757.758s-.34.757-.758.757h-.001l-5.373-.007-.037 5.423c-.002.418-.341.754-.757.754z" fill="#7dc7ff" data-original="#7dc7ff"></path><path d="m270.624 374.63h-.005c-.477-.003-.917-.189-1.246-.523-.33-.334-.51-.776-.507-1.246l.054-7.924 7.875.01c.968 0 1.756.788 1.756 1.758-.002.97-.791 1.757-1.758 1.757l-4.381-.006-.03 4.429c-.007.962-.795 1.745-1.758 1.745z" fill="#7dc7ff" data-original="#7dc7ff"></path></g></g><g><g fill="#7dc7ff"><path d="m248.97 373.52c-.196 0-.391-.075-.539-.226-.294-.298-.291-.777.007-1.071l7.567-7.464 7.45 7.468c.296.296.295.776-.001 1.071-.296.296-.776.295-1.071-.001l-6.386-6.402-6.494 6.406c-.149.146-.341.219-.533.219z" fill="#7dc7ff" data-original="#7dc7ff"></path><path d="m262.918 374.52c-.001 0-.002 0-.003 0-.471-.001-.911-.185-1.242-.518l-5.683-5.696-5.786 5.707c-.673.661-1.828.651-2.486-.017-.68-.69-.672-1.805.017-2.485l8.275-8.162 8.152 8.172c.332.333.514.774.514 1.244-.001.469-.185.91-.517 1.241-.331.331-.772.514-1.241.514z" fill="#7dc7ff" data-original="#7dc7ff"></path></g></g><g><g fill="#7dc7ff"><path d="m251.582 377.857c-.196 0-.391-.075-.539-.226-.294-.298-.291-.777.007-1.071l4.934-4.867 4.859 4.871c.296.296.295.776-.001 1.071-.296.296-.776.295-1.071-.001l-3.795-3.804-3.861 3.809c-.149.145-.341.218-.533.218z" fill="#7dc7ff" data-original="#7dc7ff"></path><path d="m251.582 378.857c-.475 0-.919-.187-1.252-.524-.68-.688-.672-1.804.018-2.484l5.642-5.565 5.561 5.575c.331.331.514.772.514 1.242-.001.471-.184.912-.517 1.243-.685.685-1.8.683-2.484-.002l-3.094-3.102-3.153 3.11c-.332.328-.771.507-1.235.507z" fill="#7dc7ff" data-original="#7dc7ff"></path></g></g><g><g fill="#7dc7ff"><path d="m246.211 372.33c-.001 0-.001 0 0 0-.419 0-.758-.34-.758-.758l.011-9.042-9.122-.062c-.418-.003-.755-.344-.752-.763.003-.417.341-.753.757-.753h.005l10.628.072-.013 10.549c.001.418-.338.757-.756.757z" fill="#7dc7ff" data-original="#7dc7ff"></path><path d="m246.21 373.33c-.47 0-.911-.183-1.243-.516-.332-.332-.515-.774-.514-1.244l.01-8.048-8.127-.056c-.969-.007-1.752-.801-1.746-1.77.007-.962.795-1.745 1.757-1.745l11.635.079-.015 11.543c0 .97-.788 1.757-1.757 1.757z" fill="#7dc7ff" data-original="#7dc7ff"></path></g></g><g><g fill="#7dc7ff"><path d="m241.297 373.55c-.001 0-.001 0 0 0-.419 0-.758-.34-.758-.758l.007-5.373-5.423-.037c-.418-.003-.755-.344-.752-.763.003-.417.341-.753.757-.753h.005l6.93.047-.009 6.88c0 .419-.339.757-.757.757z" fill="#7dc7ff" data-original="#7dc7ff"></path><path d="m241.296 374.551h-.002c-.969-.002-1.756-.792-1.755-1.76l.005-4.379-4.429-.03c-.47-.003-.91-.189-1.239-.523-.33-.334-.51-.777-.506-1.246.007-.963.795-1.746 1.757-1.746l7.936.054-.009 7.875c-.001.968-.789 1.755-1.758 1.755z" fill="#7dc7ff" data-original="#7dc7ff"></path></g></g><g><g fill="#7dc7ff"><path d="m235.238 359.675c-.194 0-.388-.074-.536-.223-.296-.296-.295-.776.001-1.071l6.402-6.386-6.406-6.494c-.294-.298-.291-.778.007-1.071.298-.294.777-.291 1.071.007l7.464 7.567-7.468 7.45c-.148.148-.341.221-.535.221z" fill="#7dc7ff" data-original="#7dc7ff"></path><path d="m235.238 360.676c-.471 0-.913-.184-1.245-.517s-.513-.774-.513-1.244.184-.911.517-1.242l5.697-5.683-5.708-5.786c-.681-.689-.673-1.805.017-2.485.332-.327.77-.507 1.235-.507h.011c.47.003.91.188 1.24.523l8.163 8.274-8.173 8.152c-.333.332-.773.515-1.241.515z" fill="#7dc7ff" data-original="#7dc7ff"></path></g></g><g><g fill="#7dc7ff"><path d="m230.9 357.063c-.194 0-.388-.074-.536-.223-.296-.296-.295-.776.001-1.071l3.804-3.795-3.809-3.861c-.294-.298-.291-.778.007-1.071.298-.294.777-.291 1.071.007l4.867 4.934-4.871 4.859c-.146.148-.34.221-.534.221z" fill="#7dc7ff" data-original="#7dc7ff"></path><path d="m230.9 358.063c-.47 0-.912-.184-1.245-.517-.331-.331-.513-.772-.513-1.242 0-.471.184-.912.517-1.243l3.101-3.093-3.11-3.153c-.681-.689-.673-1.805.016-2.485.692-.68 1.805-.672 2.485.017l5.566 5.643-5.575 5.561c-.333.33-.773.512-1.242.512z" fill="#7dc7ff" data-original="#7dc7ff"></path></g></g><g><g fill="#7dc7ff"><path d="m246.975 342.981-10.549-.013c-.418-.001-.757-.34-.757-.759.001-.418.34-.757.758-.757h.001l9.042.011.062-9.122c.003-.417.341-.752.757-.752h.005c.418.003.755.344.752.763z" fill="#7dc7ff" data-original="#7dc7ff"></path><path d="m247.969 343.982-11.543-.014c-.97-.002-1.757-.792-1.756-1.76.001-.969.79-1.756 1.758-1.756l8.05.011.055-8.128c.007-.962.795-1.745 1.757-1.745.479.002.92.188 1.25.521s.511.777.507 1.248z" fill="#7dc7ff" data-original="#7dc7ff"></path></g></g><g><g fill="#7dc7ff"><path d="m242.086 338.063-6.88-.009c-.418-.001-.757-.34-.757-.759.001-.418.34-.757.758-.757h.001l5.373.007.037-5.423c.003-.417.341-.752.757-.752h.005c.418.003.755.344.752.763z" fill="#7dc7ff" data-original="#7dc7ff"></path><path d="m243.08 339.063-7.875-.01c-.468 0-.909-.183-1.241-.516-.332-.332-.515-.773-.514-1.243.001-.969.79-1.756 1.757-1.756l4.381.006.03-4.43c.007-.962.795-1.745 1.757-1.745.482.003.922.189 1.251.523.33.334.51.777.506 1.246z" fill="#7dc7ff" data-original="#7dc7ff"></path></g></g></g></g><g><g><path d="m359.465 146.687c-9.723-.299-19.133.909-27.99 3.399-6.406-48.586-47.985-86.086-98.32-86.086-54.774 0-99.184 44.41-99.184 99.184 0 .317 0 .634.011.94-39.085 2.558-69.982 35.073-69.982 74.804v1.122c0 37.903 30.727 68.63 68.63 68.63h247.58c37.903 0 68.63-30.727 68.63-68.63v-.03c.001-50.022-39.377-91.793-89.375-93.333z" fill="#b7e3f6" data-original="#b7e3f6"></path></g><path d="m357.531 147.139c-8.875-.049-17.469 1.157-25.597 3.443-6.407-48.586-47.985-86.086-98.32-86.086-36.955 0-69.189 20.217-86.252 50.192 14.453-8.228 31.173-12.932 48.992-12.932 50.335 0 91.914 37.5 98.32 86.086 8.128-2.286 16.722-3.491 25.597-3.443 50.95.279 91.769 42.455 91.769 93.406 0 9.275-1.85 18.115-5.185 26.185 24.911-10.293 42.445-34.817 42.445-63.445 0-50.951-40.819-93.127-91.769-93.406z" fill="#8fc3df" data-original="#8fc3df"></path></g></g></g></svg>